  <svg  viewBox="0 0 345 378" fill="none" xmlns="http://www.w3.org/2000/svg">
<g filter="url(#filter0_di_89_283)">
<path d="M174 51C182.837 51 190 58.1634 190 67C190 73.9043 185.627 79.7867 179.499 82.0293V141.97C185.627 144.212 190 150.096 190 157C190 159.514 189.419 161.892 188.386 164.009L218.177 194.092C219.981 193.386 221.946 193 224 193C226.244 193 228.38 193.463 230.318 194.297L261.389 163.529C260.496 161.535 260 159.326 260 157C260 148.163 267.163 141 276 141C284.837 141 292 148.163 292 157C292 165.837 284.837 173 276 173C273.893 173 271.881 172.592 270.038 171.852L238.763 202.823C239.559 204.724 240 206.81 240 209C240 215.522 236.097 221.133 230.499 223.624V267.375C236.097 269.866 240 275.477 240 282C240 284.217 239.548 286.328 238.732 288.248L279.4 328.916C279.917 328.637 280.451 328.386 281 328.164V284.836C275.137 282.462 271 276.715 271 270C271 261.163 278.163 254 287 254C295.837 254 303 261.163 303 270C303 276.715 298.863 282.463 292.999 284.836V328.163C298.863 330.536 303 336.285 303 343C303 345.75 302.305 348.338 301.083 350.599L343.242 392.758C345.585 395.101 345.585 398.899 343.242 401.242C340.899 403.585 337.101 403.585 334.758 401.242L291.786 358.271C290.275 358.744 288.667 359 287 359C278.163 359 271 351.837 271 343C271 341.332 271.255 339.724 271.729 338.213L230.248 296.732C228.328 297.548 226.217 298 224 298C217.285 298 211.536 293.863 209.163 287.999H165.836C163.463 293.863 157.715 298 151 298C142.163 298 135 290.837 135 282C135 275.285 139.137 269.538 145 267.164V223.835C139.137 221.461 135 215.714 135 209C135 206.621 135.519 204.364 136.45 202.335L106.175 171.763C104.275 172.558 102.189 173 100 173C93.2849 173 87.5364 168.863 85.1631 162.999H41.8359C39.4625 168.863 33.7149 173 27 173C18.1634 173 11 165.837 11 157C11 148.163 18.1634 141 27 141C33.7146 141 39.4623 145.137 41.8359 151H85.1641C87.5377 145.137 93.2854 141 100 141C108.837 141 116 148.163 116 157C116 159.244 115.536 161.38 114.702 163.318L145.177 194.092C146.981 193.386 148.946 193 151 193C159.837 193 167 200.163 167 209C167 215.715 162.863 221.463 156.999 223.836V267.163C161.01 268.786 164.212 271.989 165.836 276H209.164C210.855 271.824 214.256 268.523 218.5 266.97V224.029C212.373 221.786 208 215.904 208 209C208 206.621 208.519 204.364 209.45 202.335L179.454 172.045C177.752 172.662 175.915 173 174 173C165.163 173 158 165.837 158 157C158 154.893 158.407 152.881 159.147 151.039L128.175 119.763C126.275 120.558 124.189 121 122 121C113.163 121 106 113.837 106 105C106 96.1634 113.163 89 122 89C130.837 89 138 96.1634 138 105C138 107.244 137.536 109.38 136.702 111.318L167.471 142.389C167.481 142.384 167.491 142.38 167.501 142.375V81.624C161.903 79.1326 158 73.5225 158 67C158 58.1634 165.163 51 174 51Z" fill="#D9D9D9"/>
<path d="M174 51C182.837 51 190 58.1634 190 67C190 73.9043 185.627 79.7867 179.499 82.0293V141.97C185.627 144.212 190 150.096 190 157C190 159.514 189.419 161.892 188.386 164.009L218.177 194.092C219.981 193.386 221.946 193 224 193C226.244 193 228.38 193.463 230.318 194.297L261.389 163.529C260.496 161.535 260 159.326 260 157C260 148.163 267.163 141 276 141C284.837 141 292 148.163 292 157C292 165.837 284.837 173 276 173C273.893 173 271.881 172.592 270.038 171.852L238.763 202.823C239.559 204.724 240 206.81 240 209C240 215.522 236.097 221.133 230.499 223.624V267.375C236.097 269.866 240 275.477 240 282C240 284.217 239.548 286.328 238.732 288.248L279.4 328.916C279.917 328.637 280.451 328.386 281 328.164V284.836C275.137 282.462 271 276.715 271 270C271 261.163 278.163 254 287 254C295.837 254 303 261.163 303 270C303 276.715 298.863 282.463 292.999 284.836V328.163C298.863 330.536 303 336.285 303 343C303 345.75 302.305 348.338 301.083 350.599L343.242 392.758C345.585 395.101 345.585 398.899 343.242 401.242C340.899 403.585 337.101 403.585 334.758 401.242L291.786 358.271C290.275 358.744 288.667 359 287 359C278.163 359 271 351.837 271 343C271 341.332 271.255 339.724 271.729 338.213L230.248 296.732C228.328 297.548 226.217 298 224 298C217.285 298 211.536 293.863 209.163 287.999H165.836C163.463 293.863 157.715 298 151 298C142.163 298 135 290.837 135 282C135 275.285 139.137 269.538 145 267.164V223.835C139.137 221.461 135 215.714 135 209C135 206.621 135.519 204.364 136.45 202.335L106.175 171.763C104.275 172.558 102.189 173 100 173C93.2849 173 87.5364 168.863 85.1631 162.999H41.8359C39.4625 168.863 33.7149 173 27 173C18.1634 173 11 165.837 11 157C11 148.163 18.1634 141 27 141C33.7146 141 39.4623 145.137 41.8359 151H85.1641C87.5377 145.137 93.2854 141 100 141C108.837 141 116 148.163 116 157C116 159.244 115.536 161.38 114.702 163.318L145.177 194.092C146.981 193.386 148.946 193 151 193C159.837 193 167 200.163 167 209C167 215.715 162.863 221.463 156.999 223.836V267.163C161.01 268.786 164.212 271.989 165.836 276H209.164C210.855 271.824 214.256 268.523 218.5 266.97V224.029C212.373 221.786 208 215.904 208 209C208 206.621 208.519 204.364 209.45 202.335L179.454 172.045C177.752 172.662 175.915 173 174 173C165.163 173 158 165.837 158 157C158 154.893 158.407 152.881 159.147 151.039L128.175 119.763C126.275 120.558 124.189 121 122 121C113.163 121 106 113.837 106 105C106 96.1634 113.163 89 122 89C130.837 89 138 96.1634 138 105C138 107.244 137.536 109.38 136.702 111.318L167.471 142.389C167.481 142.384 167.491 142.38 167.501 142.375V81.624C161.903 79.1326 158 73.5225 158 67C158 58.1634 165.163 51 174 51Z" fill="#0F1D2C"/>
</g>
<g filter="url(#filter1_di_89_283)">
<circle cx="287" cy="270" r="6" fill="url(#paint0_linear_89_283)"/>
</g>
<g filter="url(#filter2_d_89_283)">
<circle cx="224" cy="282" r="6" fill="url(#paint1_radial_89_283)" fill-opacity="0.3" shape-rendering="crispEdges"/>
</g>
<g filter="url(#filter3_d_89_283)">
<circle cx="224" cy="209" r="6" fill="url(#paint2_radial_89_283)" fill-opacity="0.3" shape-rendering="crispEdges"/>
</g>
<g filter="url(#filter4_d_89_283)">
<circle cx="173.5" cy="157" r="6" fill="url(#paint3_radial_89_283)" fill-opacity="0.3" shape-rendering="crispEdges"/>
</g>
<g filter="url(#filter5_d_89_283)">
<circle cx="100" cy="157" r="6" fill="url(#paint4_radial_89_283)" fill-opacity="0.3" shape-rendering="crispEdges"/>
</g>
<g filter="url(#filter6_di_89_283)">
<circle cx="122" cy="105" r="6" fill="#D9D9D9"/>
<circle cx="122" cy="105" r="6" fill="url(#paint5_linear_89_283)"/>
</g>
<g filter="url(#filter7_di_89_283)">
<circle cx="27" cy="157" r="6" fill="#D9D9D9"/>
<circle cx="27" cy="157" r="6" fill="url(#paint6_linear_89_283)"/>
</g>
<g filter="url(#filter8_di_89_283)">
<circle cx="276" cy="157" r="6" fill="#D9D9D9"/>
<circle cx="276" cy="157" r="6" fill="url(#paint7_linear_89_283)"/>
</g>
<g filter="url(#filter9_d_89_283)">
<circle cx="174" cy="67" r="12" fill="#D9D9D9"/>
<circle cx="174" cy="67" r="12" fill="url(#paint8_radial_89_283)"/>
<circle cx="174" cy="67" r="11.5" stroke="url(#paint9_linear_89_283)"/>
</g>
<g filter="url(#filter10_d_89_283)">
<circle cx="151" cy="282" r="6" fill="url(#paint10_radial_89_283)" fill-opacity="0.3" shape-rendering="crispEdges"/>
</g>
<g filter="url(#filter11_d_89_283)">
<circle cx="151" cy="209" r="6" fill="url(#paint11_radial_89_283)" fill-opacity="0.3" shape-rendering="crispEdges"/>
</g>
<g filter="url(#filter12_d_89_283)">
<circle cx="287" cy="343" r="6" fill="url(#paint12_radial_89_283)" fill-opacity="0.3" shape-rendering="crispEdges"/>
</g>
<defs>
<filter id="filter0_di_89_283" x="9" y="51" width="336" height="354" filterUnits="userSpaceOnUse" color-interpolation-filters="sRGB">
<feFlood flood-opacity="0" result="BackgroundImageFix"/>
<feColorMatrix in="SourceAlpha" type="matrix" values="0 0 0 0 0 0 0 0 0 0 0 0 0 0 0 0 0 0 127 0" result="hardAlpha"/>
<feOffset dx="-1" dy="1"/>
<feGaussianBlur stdDeviation="0.5"/>
<feComposite in2="hardAlpha" operator="out"/>
<feColorMatrix type="matrix" values="0 0 0 0 0.392756 0 0 0 0 0.437955 0 0 0 0 0.543419 0 0 0 0.1 0"/>
<feBlend mode="normal" in2="BackgroundImageFix" result="effect1_dropShadow_89_283"/>
<feBlend mode="normal" in="SourceGraphic" in2="effect1_dropShadow_89_283" result="shape"/>
<feColorMatrix in="SourceAlpha" type="matrix" values="0 0 0 0 0 0 0 0 0 0 0 0 0 0 0 0 0 0 127 0" result="hardAlpha"/>
<feOffset dx="-1" dy="1"/>
<feGaussianBlur stdDeviation="1"/>
<feComposite in2="hardAlpha" operator="arithmetic" k2="-1" k3="1"/>
<feColorMatrix type="matrix" values="0 0 0 0 0 0 0 0 0 0 0 0 0 0 0 0 0 0 0.25 0"/>
<feBlend mode="normal" in2="shape" result="effect2_innerShadow_89_283"/>
</filter>
<filter id="filter1_di_89_283" x="260" y="243" width="54" height="54" filterUnits="userSpaceOnUse" color-interpolation-filters="sRGB">
<feFlood flood-opacity="0" result="BackgroundImageFix"/>
<feColorMatrix in="SourceAlpha" type="matrix" values="0 0 0 0 0 0 0 0 0 0 0 0 0 0 0 0 0 0 127 0" result="hardAlpha"/>
<feMorphology radius="1" operator="dilate" in="SourceAlpha" result="effect1_dropShadow_89_283"/>
<feOffset/>
<feGaussianBlur stdDeviation="10"/>
<feComposite in2="hardAlpha" operator="out"/>
<feColorMatrix type="matrix" values="0 0 0 0 0.193528 0 0 0 0 0.354823 0 0 0 0 1 0 0 0 0.8 0"/>
<feBlend mode="normal" in2="BackgroundImageFix" result="effect1_dropShadow_89_283"/>
<feBlend mode="normal" in="SourceGraphic" in2="effect1_dropShadow_89_283" result="shape"/>
<feColorMatrix in="SourceAlpha" type="matrix" values="0 0 0 0 0 0 0 0 0 0 0 0 0 0 0 0 0 0 127 0" result="hardAlpha"/>
<feOffset dy="-1"/>
<feGaussianBlur stdDeviation="0.5"/>
<feComposite in2="hardAlpha" operator="arithmetic" k2="-1" k3="1"/>
<feColorMatrix type="matrix" values="0 0 0 0 0 0 0 0 0 0.2 0 0 0 0 1 0 0 0 0.2 0"/>
<feBlend mode="normal" in2="shape" result="effect2_innerShadow_89_283"/>
</filter>
<filter id="filter2_d_89_283" x="205" y="263" width="38" height="38" filterUnits="userSpaceOnUse" color-interpolation-filters="sRGB">
<feFlood flood-opacity="0" result="BackgroundImageFix"/>
<feColorMatrix in="SourceAlpha" type="matrix" values="0 0 0 0 0 0 0 0 0 0 0 0 0 0 0 0 0 0 127 0" result="hardAlpha"/>
<feMorphology radius="3" operator="dilate" in="SourceAlpha" result="effect1_dropShadow_89_283"/>
<feOffset/>
<feGaussianBlur stdDeviation="5"/>
<feComposite in2="hardAlpha" operator="out"/>
<feColorMatrix type="matrix" values="0 0 0 0 0.47451 0 0 0 0 0.792157 0 0 0 0 0.219608 0 0 0 0.15 0"/>
<feBlend mode="normal" in2="BackgroundImageFix" result="effect1_dropShadow_89_283"/>
<feBlend mode="normal" in="SourceGraphic" in2="effect1_dropShadow_89_283" result="shape"/>
</filter>
<filter id="filter3_d_89_283" x="205" y="190" width="38" height="38" filterUnits="userSpaceOnUse" color-interpolation-filters="sRGB">
<feFlood flood-opacity="0" result="BackgroundImageFix"/>
<feColorMatrix in="SourceAlpha" type="matrix" values="0 0 0 0 0 0 0 0 0 0 0 0 0 0 0 0 0 0 127 0" result="hardAlpha"/>
<feMorphology radius="3" operator="dilate" in="SourceAlpha" result="effect1_dropShadow_89_283"/>
<feOffset/>
<feGaussianBlur stdDeviation="5"/>
<feComposite in2="hardAlpha" operator="out"/>
<feColorMatrix type="matrix" values="0 0 0 0 0.47451 0 0 0 0 0.792157 0 0 0 0 0.219608 0 0 0 0.15 0"/>
<feBlend mode="normal" in2="BackgroundImageFix" result="effect1_dropShadow_89_283"/>
<feBlend mode="normal" in="SourceGraphic" in2="effect1_dropShadow_89_283" result="shape"/>
</filter>
<filter id="filter4_d_89_283" x="154.5" y="138" width="38" height="38" filterUnits="userSpaceOnUse" color-interpolation-filters="sRGB">
<feFlood flood-opacity="0" result="BackgroundImageFix"/>
<feColorMatrix in="SourceAlpha" type="matrix" values="0 0 0 0 0 0 0 0 0 0 0 0 0 0 0 0 0 0 127 0" result="hardAlpha"/>
<feMorphology radius="3" operator="dilate" in="SourceAlpha" result="effect1_dropShadow_89_283"/>
<feOffset/>
<feGaussianBlur stdDeviation="5"/>
<feComposite in2="hardAlpha" operator="out"/>
<feColorMatrix type="matrix" values="0 0 0 0 0.47451 0 0 0 0 0.792157 0 0 0 0 0.219608 0 0 0 0.15 0"/>
<feBlend mode="normal" in2="BackgroundImageFix" result="effect1_dropShadow_89_283"/>
<feBlend mode="normal" in="SourceGraphic" in2="effect1_dropShadow_89_283" result="shape"/>
</filter>
<filter id="filter5_d_89_283" x="81" y="138" width="38" height="38" filterUnits="userSpaceOnUse" color-interpolation-filters="sRGB">
<feFlood flood-opacity="0" result="BackgroundImageFix"/>
<feColorMatrix in="SourceAlpha" type="matrix" values="0 0 0 0 0 0 0 0 0 0 0 0 0 0 0 0 0 0 127 0" result="hardAlpha"/>
<feMorphology radius="3" operator="dilate" in="SourceAlpha" result="effect1_dropShadow_89_283"/>
<feOffset/>
<feGaussianBlur stdDeviation="5"/>
<feComposite in2="hardAlpha" operator="out"/>
<feColorMatrix type="matrix" values="0 0 0 0 0.47451 0 0 0 0 0.792157 0 0 0 0 0.219608 0 0 0 0.15 0"/>
<feBlend mode="normal" in2="BackgroundImageFix" result="effect1_dropShadow_89_283"/>
<feBlend mode="normal" in="SourceGraphic" in2="effect1_dropShadow_89_283" result="shape"/>
</filter>
<filter id="filter6_di_89_283" x="95" y="78" width="54" height="54" filterUnits="userSpaceOnUse" color-interpolation-filters="sRGB">
<feFlood flood-opacity="0" result="BackgroundImageFix"/>
<feColorMatrix in="SourceAlpha" type="matrix" values="0 0 0 0 0 0 0 0 0 0 0 0 0 0 0 0 0 0 127 0" result="hardAlpha"/>
<feMorphology radius="1" operator="dilate" in="SourceAlpha" result="effect1_dropShadow_89_283"/>
<feOffset/>
<feGaussianBlur stdDeviation="10"/>
<feComposite in2="hardAlpha" operator="out"/>
<feColorMatrix type="matrix" values="0 0 0 0 0.193528 0 0 0 0 0.354823 0 0 0 0 1 0 0 0 0.8 0"/>
<feBlend mode="normal" in2="BackgroundImageFix" result="effect1_dropShadow_89_283"/>
<feBlend mode="normal" in="SourceGraphic" in2="effect1_dropShadow_89_283" result="shape"/>
<feColorMatrix in="SourceAlpha" type="matrix" values="0 0 0 0 0 0 0 0 0 0 0 0 0 0 0 0 0 0 127 0" result="hardAlpha"/>
<feOffset dy="-1"/>
<feGaussianBlur stdDeviation="0.5"/>
<feComposite in2="hardAlpha" operator="arithmetic" k2="-1" k3="1"/>
<feColorMatrix type="matrix" values="0 0 0 0 0 0 0 0 0 0.2 0 0 0 0 1 0 0 0 0.2 0"/>
<feBlend mode="normal" in2="shape" result="effect2_innerShadow_89_283"/>
</filter>
<filter id="filter7_di_89_283" x="0" y="130" width="54" height="54" filterUnits="userSpaceOnUse" color-interpolation-filters="sRGB">
<feFlood flood-opacity="0" result="BackgroundImageFix"/>
<feColorMatrix in="SourceAlpha" type="matrix" values="0 0 0 0 0 0 0 0 0 0 0 0 0 0 0 0 0 0 127 0" result="hardAlpha"/>
<feMorphology radius="1" operator="dilate" in="SourceAlpha" result="effect1_dropShadow_89_283"/>
<feOffset/>
<feGaussianBlur stdDeviation="10"/>
<feComposite in2="hardAlpha" operator="out"/>
<feColorMatrix type="matrix" values="0 0 0 0 0.193528 0 0 0 0 0.354823 0 0 0 0 1 0 0 0 0.8 0"/>
<feBlend mode="normal" in2="BackgroundImageFix" result="effect1_dropShadow_89_283"/>
<feBlend mode="normal" in="SourceGraphic" in2="effect1_dropShadow_89_283" result="shape"/>
<feColorMatrix in="SourceAlpha" type="matrix" values="0 0 0 0 0 0 0 0 0 0 0 0 0 0 0 0 0 0 127 0" result="hardAlpha"/>
<feOffset dy="-1"/>
<feGaussianBlur stdDeviation="0.5"/>
<feComposite in2="hardAlpha" operator="arithmetic" k2="-1" k3="1"/>
<feColorMatrix type="matrix" values="0 0 0 0 0 0 0 0 0 0.2 0 0 0 0 1 0 0 0 0.2 0"/>
<feBlend mode="normal" in2="shape" result="effect2_innerShadow_89_283"/>
</filter>
<filter id="filter8_di_89_283" x="249" y="130" width="54" height="54" filterUnits="userSpaceOnUse" color-interpolation-filters="sRGB">
<feFlood flood-opacity="0" result="BackgroundImageFix"/>
<feColorMatrix in="SourceAlpha" type="matrix" values="0 0 0 0 0 0 0 0 0 0 0 0 0 0 0 0 0 0 127 0" result="hardAlpha"/>
<feMorphology radius="1" operator="dilate" in="SourceAlpha" result="effect1_dropShadow_89_283"/>
<feOffset/>
<feGaussianBlur stdDeviation="10"/>
<feComposite in2="hardAlpha" operator="out"/>
<feColorMatrix type="matrix" values="0 0 0 0 0.193528 0 0 0 0 0.354823 0 0 0 0 1 0 0 0 0.8 0"/>
<feBlend mode="normal" in2="BackgroundImageFix" result="effect1_dropShadow_89_283"/>
<feBlend mode="normal" in="SourceGraphic" in2="effect1_dropShadow_89_283" result="shape"/>
<feColorMatrix in="SourceAlpha" type="matrix" values="0 0 0 0 0 0 0 0 0 0 0 0 0 0 0 0 0 0 127 0" result="hardAlpha"/>
<feOffset dy="-1"/>
<feGaussianBlur stdDeviation="0.5"/>
<feComposite in2="hardAlpha" operator="arithmetic" k2="-1" k3="1"/>
<feColorMatrix type="matrix" values="0 0 0 0 0 0 0 0 0 0.2 0 0 0 0 1 0 0 0 0.2 0"/>
<feBlend mode="normal" in2="shape" result="effect2_innerShadow_89_283"/>
</filter>
<filter id="filter9_d_89_283" x="107" y="0" width="134" height="134" filterUnits="userSpaceOnUse" color-interpolation-filters="sRGB">
<feFlood flood-opacity="0" result="BackgroundImageFix"/>
<feColorMatrix in="SourceAlpha" type="matrix" values="0 0 0 0 0 0 0 0 0 0 0 0 0 0 0 0 0 0 127 0" result="hardAlpha"/>
<feMorphology radius="5" operator="dilate" in="SourceAlpha" result="effect1_dropShadow_89_283"/>
<feOffset/>
<feGaussianBlur stdDeviation="25"/>
<feComposite in2="hardAlpha" operator="out"/>
<feColorMatrix type="matrix" values="0 0 0 0 0.47451 0 0 0 0 0.792157 0 0 0 0 0.219608 0 0 0 0.9 0"/>
<feBlend mode="normal" in2="BackgroundImageFix" result="effect1_dropShadow_89_283"/>
<feBlend mode="normal" in="SourceGraphic" in2="effect1_dropShadow_89_283" result="shape"/>
</filter>
<filter id="filter10_d_89_283" x="132" y="263" width="38" height="38" filterUnits="userSpaceOnUse" color-interpolation-filters="sRGB">
<feFlood flood-opacity="0" result="BackgroundImageFix"/>
<feColorMatrix in="SourceAlpha" type="matrix" values="0 0 0 0 0 0 0 0 0 0 0 0 0 0 0 0 0 0 127 0" result="hardAlpha"/>
<feMorphology radius="3" operator="dilate" in="SourceAlpha" result="effect1_dropShadow_89_283"/>
<feOffset/>
<feGaussianBlur stdDeviation="5"/>
<feComposite in2="hardAlpha" operator="out"/>
<feColorMatrix type="matrix" values="0 0 0 0 0.47451 0 0 0 0 0.792157 0 0 0 0 0.219608 0 0 0 0.15 0"/>
<feBlend mode="normal" in2="BackgroundImageFix" result="effect1_dropShadow_89_283"/>
<feBlend mode="normal" in="SourceGraphic" in2="effect1_dropShadow_89_283" result="shape"/>
</filter>
<filter id="filter11_d_89_283" x="132" y="190" width="38" height="38" filterUnits="userSpaceOnUse" color-interpolation-filters="sRGB">
<feFlood flood-opacity="0" result="BackgroundImageFix"/>
<feColorMatrix in="SourceAlpha" type="matrix" values="0 0 0 0 0 0 0 0 0 0 0 0 0 0 0 0 0 0 127 0" result="hardAlpha"/>
<feMorphology radius="3" operator="dilate" in="SourceAlpha" result="effect1_dropShadow_89_283"/>
<feOffset/>
<feGaussianBlur stdDeviation="5"/>
<feComposite in2="hardAlpha" operator="out"/>
<feColorMatrix type="matrix" values="0 0 0 0 0.47451 0 0 0 0 0.792157 0 0 0 0 0.219608 0 0 0 0.15 0"/>
<feBlend mode="normal" in2="BackgroundImageFix" result="effect1_dropShadow_89_283"/>
<feBlend mode="normal" in="SourceGraphic" in2="effect1_dropShadow_89_283" result="shape"/>
</filter>
<filter id="filter12_d_89_283" x="268" y="324" width="38" height="38" filterUnits="userSpaceOnUse" color-interpolation-filters="sRGB">
<feFlood flood-opacity="0" result="BackgroundImageFix"/>
<feColorMatrix in="SourceAlpha" type="matrix" values="0 0 0 0 0 0 0 0 0 0 0 0 0 0 0 0 0 0 127 0" result="hardAlpha"/>
<feMorphology radius="3" operator="dilate" in="SourceAlpha" result="effect1_dropShadow_89_283"/>
<feOffset/>
<feGaussianBlur stdDeviation="5"/>
<feComposite in2="hardAlpha" operator="out"/>
<feColorMatrix type="matrix" values="0 0 0 0 0.47451 0 0 0 0 0.792157 0 0 0 0 0.219608 0 0 0 0.15 0"/>
<feBlend mode="normal" in2="BackgroundImageFix" result="effect1_dropShadow_89_283"/>
<feBlend mode="normal" in="SourceGraphic" in2="effect1_dropShadow_89_283" result="shape"/>
</filter>
<linearGradient id="paint0_linear_89_283" x1="287" y1="264" x2="287" y2="276" gradientUnits="userSpaceOnUse">
<stop stop-color="#0156BA"/>
<stop offset="0.735577" stop-color="#043873"/>
</linearGradient>
<radialGradient id="paint1_radial_89_283" cx="0" cy="0" r="1" gradientTransform="matrix(-0.451884 18.45 -14.0247 -3.06577 224.477 274.8)" gradientUnits="userSpaceOnUse">
<stop stop-color="#B2FF4C"/>
<stop offset="0.802369" stop-color="#0F6612"/>
</radialGradient>
<radialGradient id="paint2_radial_89_283" cx="0" cy="0" r="1" gradientTransform="matrix(-0.451884 18.45 -14.0247 -3.06577 224.477 201.8)" gradientUnits="userSpaceOnUse">
<stop stop-color="#B2FF4C"/>
<stop offset="0.802369" stop-color="#0F6612"/>
</radialGradient>
<radialGradient id="paint3_radial_89_283" cx="0" cy="0" r="1" gradientTransform="matrix(-0.451884 18.45 -14.0247 -3.06577 173.977 149.8)" gradientUnits="userSpaceOnUse">
<stop stop-color="#B2FF4C"/>
<stop offset="0.802369" stop-color="#0F6612"/>
</radialGradient>
<radialGradient id="paint4_radial_89_283" cx="0" cy="0" r="1" gradientTransform="matrix(-0.451884 18.45 -14.0247 -3.06577 100.477 149.8)" gradientUnits="userSpaceOnUse">
<stop stop-color="#B2FF4C"/>
<stop offset="0.802369" stop-color="#0F6612"/>
</radialGradient>
<linearGradient id="paint5_linear_89_283" x1="122" y1="99" x2="122" y2="111" gradientUnits="userSpaceOnUse">
<stop stop-color="#0156BA"/>
<stop offset="0.735577" stop-color="#043873"/>
</linearGradient>
<linearGradient id="paint6_linear_89_283" x1="27" y1="151" x2="27" y2="163" gradientUnits="userSpaceOnUse">
<stop stop-color="#0156BA"/>
<stop offset="0.735577" stop-color="#043873"/>
</linearGradient>
<linearGradient id="paint7_linear_89_283" x1="276" y1="151" x2="276" y2="163" gradientUnits="userSpaceOnUse">
<stop stop-color="#0156BA"/>
<stop offset="0.735577" stop-color="#043873"/>
</linearGradient>
<radialGradient id="paint8_radial_89_283" cx="0" cy="0" r="1" gradientTransform="matrix(-0.903767 36.9 -28.0494 -6.13155 174.954 52.6)" gradientUnits="userSpaceOnUse">
<stop stop-color="#B2FF4C"/>
<stop offset="0.802369" stop-color="#0F6612"/>
</radialGradient>
<linearGradient id="paint9_linear_89_283" x1="177.967" y1="52.15" x2="156.375" y2="76.9818" gradientUnits="userSpaceOnUse">
<stop stop-color="#AAFF3A"/>
<stop offset="1" stop-color="#1D680E"/>
</linearGradient>
<radialGradient id="paint10_radial_89_283" cx="0" cy="0" r="1" gradientTransform="matrix(-0.451884 18.45 -14.0247 -3.06577 151.477 274.8)" gradientUnits="userSpaceOnUse">
<stop stop-color="#B2FF4C"/>
<stop offset="0.802369" stop-color="#0F6612"/>
</radialGradient>
<radialGradient id="paint11_radial_89_283" cx="0" cy="0" r="1" gradientTransform="matrix(-0.451884 18.45 -14.0247 -3.06577 151.477 201.8)" gradientUnits="userSpaceOnUse">
<stop stop-color="#B2FF4C"/>
<stop offset="0.802369" stop-color="#0F6612"/>
</radialGradient>
<radialGradient id="paint12_radial_89_283" cx="0" cy="0" r="1" gradientTransform="matrix(-0.451884 18.45 -14.0247 -3.06577 287.477 335.8)" gradientUnits="userSpaceOnUse">
<stop stop-color="#B2FF4C"/>
<stop offset="0.802369" stop-color="#0F6612"/>
</radialGradient>
</defs>
</svg>