<svg width="392" height="179" viewBox="0 0 392 179" fill="none" xmlns="http://www.w3.org/2000/svg">
<g clip-path="url(#clip0_57_31)">
<rect x="171" y="92.1677" width="157" height="64" rx="32" transform="rotate(-27.7773 171 92.1677)" fill="url(#paint0_linear_57_31)"/>
<circle cx="213.188" cy="107.888" r="6" transform="rotate(-27.7731 213.188 107.888)" fill="#B300FF"/>
<path d="M229.842 105.818L223.224 93.2544L224.817 92.4156L231.435 104.979L229.842 105.818ZM242.207 99.3051L240.65 100.125L237.928 94.9583C237.412 93.9791 236.883 93.3462 236.34 93.0595C235.803 92.7548 235.228 92.7639 234.614 93.0871C234.19 93.3108 233.821 93.6406 233.508 94.0767C233.207 94.5065 232.988 94.9913 232.85 95.5309C232.718 96.0526 232.705 96.5867 232.812 97.1331L235.748 102.707L234.191 103.527L229.326 94.2904L230.741 93.5448L231.785 95.5266C231.803 94.9597 231.923 94.4144 232.144 93.8908C232.366 93.3673 232.678 92.8865 233.08 92.4486C233.482 92.0106 233.955 91.6487 234.497 91.3629C235.028 91.0833 235.523 90.9505 235.983 90.9647C236.448 90.9608 236.874 91.083 237.261 91.3313C237.654 91.5615 238.015 91.8908 238.347 92.3192C238.689 92.7414 239.007 93.2297 239.299 93.7842L242.207 99.3051ZM249.078 95.0984C248.979 95.2258 248.842 95.3957 248.668 95.6081C248.493 95.8205 248.277 96.0398 248.02 96.266C247.762 96.4921 247.468 96.6921 247.138 96.8661C246.76 97.065 246.378 97.1834 245.991 97.2214C245.598 97.2476 245.233 97.1689 244.895 96.9852C244.551 96.7897 244.264 96.4737 244.034 96.0372L240.762 89.8261L239.506 90.4879L238.863 89.2669L240.119 88.6051L238.497 85.5262L240.055 84.7059L241.676 87.7849L243.747 86.6944L244.39 87.9154L242.319 89.0059L245.339 94.7392C245.537 95.0571 245.779 95.2458 246.067 95.3053C246.348 95.353 246.625 95.3054 246.896 95.1625C247.203 95.0009 247.458 94.7987 247.662 94.5558C247.865 94.313 247.996 94.1462 248.053 94.0555L249.078 95.0984ZM254.823 92.8859C254.127 93.2525 253.425 93.4642 252.716 93.5209C252.013 93.5597 251.334 93.4726 250.68 93.2598C250.031 93.029 249.436 92.6868 248.896 92.233C248.367 91.773 247.932 91.2186 247.59 90.5698C247.13 89.6968 246.911 88.7949 246.933 87.864C246.956 86.9331 247.206 86.063 247.683 85.2537C248.173 84.4382 248.878 83.7881 249.798 83.3034C250.73 82.8125 251.656 82.611 252.577 82.6989C253.503 82.7688 254.344 83.0641 255.1 83.5848C255.862 84.0876 256.461 84.7519 256.896 85.5776C256.958 85.6956 257.014 85.8167 257.065 85.9409C257.121 86.047 257.158 86.1327 257.178 86.1979L249.515 90.2338C249.88 90.8106 250.327 91.2603 250.859 91.5831C251.396 91.8878 251.966 92.0547 252.569 92.0837C253.166 92.1009 253.73 91.9697 254.261 91.69C254.827 91.3918 255.283 90.9706 255.63 90.4265C255.988 89.8762 256.14 89.3213 256.087 88.7618L257.627 88.425C257.663 88.9789 257.573 89.5384 257.359 90.1036C257.156 90.6626 256.836 91.1853 256.399 91.6716C255.973 92.1518 255.448 92.5566 254.823 92.8859ZM248.894 89.1823L255.193 85.8642C254.829 85.2874 254.379 84.8466 253.841 84.5419C253.304 84.2372 252.737 84.0762 252.14 84.059C251.543 84.0418 250.968 84.1792 250.413 84.4713C249.871 84.7571 249.438 85.151 249.114 85.6528C248.791 86.1547 248.603 86.7134 248.55 87.3288C248.51 87.938 248.624 88.5559 248.894 89.1823ZM261.833 78.9082C261.061 79.3301 260.476 79.8942 260.08 80.6004C259.689 81.2886 259.546 82.0341 259.653 82.837L262.654 88.5349L261.097 89.3551L256.232 80.1182L257.683 79.3539L258.81 81.495C258.793 80.6902 258.942 79.9565 259.256 79.2938C259.575 78.613 260.012 78.0969 260.565 77.7452C260.683 77.6831 260.783 77.6302 260.866 77.5867C260.948 77.5432 261.022 77.5119 261.087 77.4926L261.833 78.9082ZM271.482 84.1113C270.785 84.4779 270.083 84.6896 269.375 84.7463C268.672 84.7851 267.993 84.698 267.338 84.4853C266.689 84.2545 266.095 83.9122 265.554 83.4584C265.026 82.9984 264.59 82.444 264.249 81.7952C263.789 80.9222 263.57 80.0203 263.592 79.0894C263.614 78.1585 263.864 77.2884 264.342 76.4791C264.832 75.6636 265.537 75.0135 266.457 74.5288C267.389 74.0379 268.315 73.8364 269.235 73.9243C270.161 73.9942 271.002 74.2895 271.759 74.8103C272.521 75.313 273.12 75.9773 273.554 76.8031C273.617 76.921 273.673 77.0421 273.723 77.1663C273.779 77.2725 273.817 77.3581 273.836 77.4233L266.174 81.4592C266.538 82.036 266.986 82.4858 267.518 82.8085C268.055 83.1132 268.625 83.2801 269.228 83.3091C269.825 83.3263 270.389 83.1951 270.919 82.9154C271.486 82.6172 271.942 82.196 272.288 81.6519C272.646 81.1016 272.799 80.5467 272.745 79.9872L274.286 79.6504C274.321 80.2043 274.232 80.7639 274.017 81.329C273.814 81.888 273.494 82.4107 273.057 82.897C272.632 83.3772 272.107 83.782 271.482 84.1113ZM265.552 80.4078L271.852 77.0896C271.488 76.5128 271.037 76.072 270.5 75.7673C269.963 75.4626 269.395 75.3016 268.799 75.2844C268.202 75.2672 267.626 75.4047 267.072 75.6967C266.529 75.9825 266.096 76.3764 265.773 76.8783C265.449 77.3801 265.261 77.9388 265.209 78.5542C265.168 79.1634 265.283 79.7813 265.552 80.4078ZM281.016 79.0891C280.249 79.493 279.464 79.7482 278.662 79.8546C277.852 79.9493 277.072 79.8704 276.322 79.6179L276.345 78.2039C277.137 78.4197 277.854 78.494 278.497 78.4267C279.14 78.3594 279.738 78.1798 280.293 77.8877C280.93 77.5522 281.387 77.1608 281.664 76.7136C281.934 76.2546 281.945 75.7891 281.697 75.3173C281.517 74.9752 281.277 74.7774 280.977 74.7241C280.69 74.6646 280.329 74.6812 279.896 74.7739C279.456 74.8547 278.94 74.9611 278.346 75.0929C277.61 75.2397 276.967 75.3219 276.419 75.3395C275.871 75.3571 275.4 75.2656 275.009 75.0652C274.617 74.8647 274.293 74.5226 274.038 74.039C273.728 73.4491 273.62 72.8729 273.716 72.3102C273.805 71.7358 274.059 71.2026 274.478 70.7106C274.909 70.2124 275.466 69.7831 276.151 69.4227C276.835 69.0623 277.51 68.8423 278.176 68.7626C278.843 68.6829 279.485 68.7438 280.104 68.9454L279.964 70.3977C279.4 70.2128 278.853 70.1469 278.323 70.1998C277.787 70.241 277.248 70.4045 276.705 70.6903C276.387 70.8581 276.096 71.064 275.833 71.3082C275.563 71.5405 275.381 71.8098 275.286 72.116C275.185 72.4103 275.228 72.7345 275.414 73.0884C275.569 73.3833 275.77 73.5789 276.017 73.675C276.269 73.7532 276.58 73.7705 276.948 73.7269C277.329 73.6771 277.781 73.6049 278.304 73.5103C279.105 73.3443 279.813 73.2279 280.425 73.1613C281.05 73.0884 281.588 73.1367 282.039 73.3061C282.49 73.4754 282.864 73.8433 283.163 74.4095C283.622 75.2825 283.652 76.1407 283.253 76.9841C282.847 77.8158 282.101 78.5174 281.016 79.0891ZM290.931 73.0528C290.832 73.1801 290.696 73.35 290.521 73.5624C290.347 73.7748 290.131 73.9941 289.873 74.2203C289.616 74.4464 289.322 74.6464 288.991 74.8204C288.614 75.0193 288.232 75.1377 287.845 75.1757C287.452 75.2019 287.086 75.1232 286.748 74.9395C286.404 74.744 286.117 74.428 285.887 73.9915L282.616 67.7804L281.359 68.4422L280.716 67.2212L281.973 66.5595L280.351 63.4805L281.908 62.6602L283.53 65.7392L285.6 64.6487L286.243 65.8697L284.173 66.9602L287.193 72.6935C287.39 73.0114 287.633 73.2001 287.921 73.2596C288.202 73.3073 288.478 73.2597 288.75 73.1168C289.056 72.9552 289.311 72.753 289.515 72.5102C289.719 72.2673 289.849 72.1005 289.907 72.0098L290.931 73.0528ZM295.877 71.2612C295.111 71.6651 294.326 71.9202 293.523 72.0267C292.714 72.1213 291.934 72.0424 291.183 71.7899L291.207 70.3759C291.998 70.5917 292.716 70.666 293.358 70.5988C294.001 70.5315 294.6 70.3518 295.154 70.0598C295.791 69.7242 296.248 69.3328 296.525 68.8856C296.796 68.4266 296.807 67.9612 296.558 67.4893C296.378 67.1472 296.138 66.9495 295.839 66.8962C295.551 66.8367 295.191 66.8532 294.757 66.9459C294.318 67.0268 293.801 67.1331 293.207 67.265C292.471 67.4118 291.829 67.494 291.28 67.5115C290.732 67.5291 290.262 67.4377 289.87 67.2372C289.478 67.0368 289.155 66.6947 288.9 66.211C288.589 65.6212 288.481 65.0449 288.577 64.4823C288.666 63.9078 288.92 63.3746 289.339 62.8827C289.77 62.3845 290.328 61.9552 291.012 61.5948C291.696 61.2344 292.371 61.0143 293.038 60.9346C293.704 60.8549 294.346 60.9159 294.965 61.1175L294.826 62.5697C294.261 62.3849 293.714 62.3189 293.184 62.3719C292.648 62.413 292.109 62.5765 291.566 62.8624C291.248 63.0301 290.957 63.2361 290.694 63.4802C290.424 63.7126 290.242 63.9818 290.147 64.288C290.046 64.5824 290.089 64.9065 290.275 65.2604C290.431 65.5554 290.632 65.7509 290.878 65.8471C291.13 65.9253 291.441 65.9425 291.81 65.8989C292.19 65.8491 292.642 65.777 293.165 65.6824C293.967 65.5163 294.674 65.4 295.287 65.3333C295.911 65.2605 296.449 65.3087 296.9 65.4781C297.351 65.6475 297.726 66.0153 298.024 66.5816C298.484 67.4545 298.514 68.3127 298.114 69.1562C297.708 69.9878 296.963 70.6895 295.877 71.2612Z" fill="white"/>
</g>
<rect x="173.026" y="92.7958" width="154" height="61" rx="30.5" transform="rotate(-27.7773 173.026 92.7958)" stroke="url(#paint1_linear_57_31)" stroke-width="3"/>
<g clip-path="url(#clip1_57_31)">
<rect x="66.3779" y="0.491699" width="145" height="64" rx="32" transform="rotate(20.3261 66.3779 0.491699)" fill="url(#paint2_linear_57_31)"/>
<circle cx="82.8491" cy="42.3927" r="6" transform="rotate(20.3303 82.8491 42.3927)" fill="#00EEFF"/>
<path d="M107.23 45.7821C107.144 45.5515 107.007 45.3086 106.817 45.0534C106.627 44.7982 106.399 44.5502 106.133 44.3094C105.871 44.0561 105.567 43.8225 105.219 43.6085C104.889 43.3867 104.524 43.2016 104.124 43.0534C103.099 42.6736 102.271 42.5872 101.639 42.7942C101.008 43.0012 100.567 43.4422 100.317 44.1174C100.141 44.5925 100.127 45.0139 100.276 45.3816C100.424 45.7493 100.722 46.1156 101.17 46.4806C101.63 46.8501 102.225 47.2769 102.956 47.7609C103.807 48.3036 104.517 48.8439 105.086 49.3815C105.654 49.9192 106.03 50.499 106.212 51.121C106.398 51.7304 106.343 52.4352 106.047 53.2354C105.811 53.8731 105.48 54.3831 105.054 54.7656C104.645 55.1402 104.163 55.4028 103.61 55.5532C103.061 55.6912 102.465 55.7264 101.822 55.6587C101.183 55.5786 100.52 55.4112 99.8327 55.1564C99.1575 54.9063 98.5203 54.5921 97.9211 54.2137C97.339 53.8275 96.8113 53.3903 96.3381 52.9022C95.8648 52.4141 95.4546 51.8711 95.1073 51.2732L96.4417 50.1466C96.5631 50.4332 96.7406 50.7407 96.9745 51.0691C97.2254 51.3895 97.5186 51.7114 97.8538 52.0347C98.2016 52.3625 98.5922 52.6707 99.0256 52.9593C99.4637 53.2353 99.9328 53.4659 100.433 53.6512C101.383 54.0032 102.183 54.1077 102.834 53.9646C103.488 53.809 103.938 53.3999 104.184 52.7373C104.369 52.2371 104.367 51.7815 104.178 51.3702C104.002 50.9636 103.663 50.5538 103.162 50.1407C102.661 49.7276 102.035 49.2682 101.284 48.7624C100.467 48.2039 99.8011 47.6799 99.2857 47.1904C98.7749 46.6884 98.4443 46.1607 98.2939 45.6073C98.1559 45.0585 98.2166 44.434 98.4759 43.7339C98.7909 42.8837 99.2635 42.2412 99.8938 41.8064C100.524 41.3715 101.257 41.1384 102.094 41.107C102.93 41.0755 103.805 41.2289 104.717 41.567C105.317 41.7893 105.851 42.0579 106.317 42.3728C106.796 42.6924 107.219 43.048 107.585 43.4398C107.952 43.8316 108.265 44.2533 108.524 44.7048L107.23 45.7821ZM110.94 59.335C110.203 59.0618 109.576 58.6804 109.061 58.1909C108.562 57.6935 108.174 57.1301 107.895 56.5008C107.634 55.8635 107.491 55.1923 107.468 54.487C107.458 53.7864 107.58 53.0922 107.834 52.4045C108.177 51.4793 108.702 50.7141 109.41 50.1089C110.117 49.5037 110.932 49.1087 111.854 48.924C112.788 48.7439 113.742 48.8345 114.718 49.1957C115.705 49.5616 116.474 50.1164 117.023 50.8602C117.589 51.596 117.931 52.4194 118.049 53.3303C118.183 54.2333 118.089 55.1225 117.765 55.9977C117.718 56.1227 117.666 56.2454 117.607 56.3658C117.565 56.4783 117.526 56.5635 117.491 56.6214L109.37 53.6133C109.184 54.2695 109.148 54.9032 109.263 55.5145C109.395 56.1179 109.651 56.6537 110.033 57.1219C110.418 57.5776 110.892 57.9096 111.455 58.118C112.055 58.3404 112.673 58.3987 113.31 58.2932C113.959 58.1923 114.473 57.9351 114.854 57.5215L116.133 58.4434C115.745 58.8398 115.269 59.1468 114.705 59.3644C114.153 59.5866 113.55 59.6975 112.896 59.697C112.255 59.7011 111.603 59.5805 110.94 59.335ZM109.738 52.4484L116.414 54.9216C116.6 54.2654 116.628 53.6356 116.496 53.0322C116.364 52.4288 116.105 51.8993 115.719 51.4436C115.333 50.9879 114.847 50.6512 114.259 50.4335C113.684 50.2205 113.102 50.1612 112.512 50.2556C111.923 50.35 111.381 50.5832 110.888 50.955C110.407 51.3315 110.024 51.8293 109.738 52.4484ZM118.038 58.5304C118.27 57.9053 118.644 57.4325 119.161 57.1121C119.695 56.7838 120.321 56.6104 121.038 56.5919C121.756 56.5734 122.528 56.717 123.353 57.0227C123.79 57.1848 124.239 57.3937 124.699 57.6493C125.164 57.8924 125.558 58.1523 125.882 58.4287L126.146 57.7161C126.424 56.9659 126.416 56.2949 126.124 55.703C125.836 55.0987 125.279 54.6437 124.454 54.338C123.916 54.1388 123.36 54.0467 122.786 54.0614C122.229 54.0684 121.608 54.1512 120.924 54.31L120.754 52.9249C121.554 52.7235 122.312 52.6347 123.029 52.6583C123.75 52.6695 124.454 52.8024 125.142 53.0571C126.392 53.5203 127.25 54.2363 127.716 55.2051C128.186 56.1614 128.192 57.2584 127.734 58.4962L126.198 62.641C126.124 62.841 126.106 63.005 126.144 63.1328C126.199 63.2527 126.318 63.3537 126.501 63.4357L126.029 64.711C125.857 64.6758 125.706 64.6413 125.577 64.6074C125.46 64.5783 125.363 64.5498 125.288 64.522C124.901 64.3784 124.646 64.1633 124.525 63.8766C124.416 63.5946 124.393 63.3302 124.456 63.0834L124.648 62.4506C124.019 62.8432 123.305 63.0622 122.507 63.1076C121.708 63.1529 120.971 63.0505 120.296 62.8004C119.645 62.5596 119.113 62.213 118.697 61.7605C118.287 61.2955 118.021 60.7847 117.9 60.2281C117.784 59.659 117.83 59.0931 118.038 58.5304ZM124.158 61.5864C124.373 61.467 124.556 61.3359 124.709 61.1933C124.866 61.0382 124.967 60.8981 125.014 60.7731L125.465 59.554C125.133 59.2604 124.768 58.9973 124.371 58.7649C123.978 58.5199 123.576 58.3209 123.163 58.1681C122.325 57.8578 121.582 57.7742 120.931 57.9172C120.298 58.0524 119.875 58.4076 119.662 58.9827C119.546 59.2953 119.514 59.6317 119.566 59.992C119.634 60.3444 119.796 60.6746 120.052 60.9826C120.32 61.2952 120.698 61.5418 121.185 61.7224C121.698 61.9123 122.223 61.9929 122.759 61.9642C123.301 61.923 123.767 61.7971 124.158 61.5864ZM131.43 66.9251C130.618 66.6241 129.904 66.2102 129.288 65.6837C128.677 65.1446 128.215 64.5113 127.902 63.7838L128.97 62.8572C129.338 63.5908 129.762 64.1743 130.241 64.6078C130.721 65.0412 131.254 65.3668 131.842 65.5845C132.517 65.8346 133.113 65.9133 133.631 65.8208C134.153 65.7157 134.507 65.4131 134.692 64.9129C134.827 64.5503 134.814 64.2398 134.654 63.9814C134.506 63.7277 134.253 63.4704 133.894 63.2097C133.541 62.9364 133.116 62.6229 132.622 62.2691C132.021 61.8189 131.531 61.3956 131.151 60.9992C130.772 60.6028 130.526 60.1918 130.414 59.7662C130.301 59.3406 130.34 58.8715 130.53 58.3589C130.761 57.7337 131.118 57.2688 131.601 56.9641C132.088 56.6469 132.655 56.48 133.301 56.4634C133.959 56.4514 134.651 56.5797 135.376 56.8483C136.102 57.117 136.716 57.4726 137.221 57.9154C137.725 58.3581 138.108 58.877 138.371 59.4721L137.197 60.3382C136.958 59.7946 136.642 59.3433 136.249 58.9844C135.86 58.6129 135.378 58.3207 134.803 58.1077C134.466 57.9826 134.118 57.9036 133.761 57.8707C133.408 57.8253 133.086 57.8695 132.794 58.0034C132.508 58.1247 132.295 58.3729 132.156 58.748C132.04 59.0605 132.029 59.3407 132.122 59.5885C132.232 59.8284 132.427 60.071 132.705 60.3165C132.997 60.5666 133.352 60.8546 133.772 61.1806C134.43 61.6665 134.989 62.1152 135.448 62.5269C135.92 62.9433 136.243 63.3758 136.418 63.8245C136.593 64.2733 136.569 64.7977 136.347 65.3979C136.004 66.3231 135.386 66.9186 134.491 67.1844C133.601 67.4376 132.581 67.3512 131.43 66.9251ZM141.507 70.6577C140.769 70.3845 140.149 70.0054 139.646 69.5205C139.148 69.0231 138.765 68.4621 138.499 67.8374C138.238 67.2002 138.102 66.5312 138.091 65.8306C138.08 65.1299 138.2 64.442 138.45 63.7669C138.705 63.0792 139.064 62.473 139.529 61.9484C139.993 61.4237 140.53 61.0111 141.139 60.7106C141.753 60.3976 142.408 60.221 143.106 60.1807C143.82 60.1326 144.54 60.2429 145.265 60.5115C146.003 60.7847 146.621 61.1701 147.119 61.6674C147.622 62.1523 148.004 62.7134 148.266 63.3506C148.545 63.9799 148.689 64.6449 148.7 65.3456C148.711 66.0462 148.589 66.7404 148.334 67.4281C148.084 68.1032 147.726 68.7031 147.262 69.2278C146.797 69.7524 146.258 70.1713 145.645 70.4843C145.036 70.7848 144.374 70.9591 143.659 71.0072C142.962 71.0475 142.245 70.931 141.507 70.6577ZM140.131 64.4109C139.881 65.086 139.798 65.7519 139.882 66.4086C139.978 67.0699 140.21 67.6534 140.577 68.1591C140.949 68.6523 141.435 69.0101 142.035 69.2324C142.635 69.4547 143.239 69.4936 143.847 69.3492C144.468 69.2094 145.024 68.9176 145.515 68.474C146.023 68.0225 146.403 67.4592 146.653 66.7841C146.903 66.1089 146.98 65.4407 146.884 64.7794C146.8 64.1227 146.568 63.5392 146.188 63.0289C145.821 62.5232 145.337 62.1591 144.737 61.9368C144.137 61.7145 143.531 61.6818 142.918 61.8388C142.31 61.9832 141.754 62.275 141.25 62.7139C140.759 63.1576 140.386 63.7232 140.131 64.4109ZM157.023 76.1922L155.373 75.5808L157.401 70.1045C157.786 69.0667 157.904 68.2501 157.754 67.6545C157.622 67.0511 157.231 66.629 156.581 66.3882C156.131 66.2214 155.639 66.1672 155.106 66.2255C154.585 66.2885 154.078 66.4489 153.584 66.7068C153.107 66.9569 152.701 67.3042 152.366 67.7487L150.178 73.6564L148.527 73.0451L152.154 63.2552L153.654 63.8109L152.876 65.9115C153.31 65.5461 153.796 65.2711 154.334 65.0863C154.871 64.9016 155.437 64.8127 156.032 64.8197C156.626 64.8266 157.211 64.9366 157.787 65.1497C158.349 65.3581 158.779 65.6381 159.075 65.9896C159.388 66.3332 159.582 66.7319 159.656 67.1858C159.746 67.6317 159.743 68.121 159.645 68.6535C159.56 69.1907 159.408 69.7531 159.191 70.3407L157.023 76.1922Z" fill="white"/>
</g>
<rect x="66.6731" y="1.13425" width="144" height="63" rx="31.5" transform="rotate(20.3261 66.6731 1.13425)" stroke="url(#paint3_linear_57_31)"/>
<g filter="url(#filter0_d_57_31)">
<rect x="126" y="103" width="64" height="64" rx="32" fill="url(#paint4_radial_57_31)"/>
<rect x="126.5" y="103.5" width="63" height="63" rx="31.5" stroke="url(#paint5_linear_57_31)"/>
<g clip-path="url(#clip2_57_31)">
<path d="M160.299 127.002C159.479 127.247 158.696 127.602 157.971 128.057C157.507 127.641 156.988 127.29 156.43 127.013L157.081 125.047C157.123 124.922 157.139 124.79 157.129 124.659C157.12 124.528 157.084 124.4 157.025 124.283C156.966 124.166 156.885 124.061 156.785 123.975C156.686 123.889 156.571 123.824 156.446 123.783C156.321 123.742 156.19 123.725 156.059 123.735C155.928 123.745 155.8 123.78 155.682 123.839C155.565 123.898 155.46 123.979 155.375 124.079C155.289 124.178 155.223 124.294 155.182 124.418L154.53 126.383C153.452 126.192 152.344 126.256 151.295 126.571C151.225 126.592 151.157 126.613 151.087 126.633L150.156 124.787C150.1 124.665 150.02 124.556 149.92 124.466C149.821 124.376 149.705 124.307 149.578 124.263C149.452 124.218 149.317 124.2 149.184 124.209C149.05 124.218 148.919 124.253 148.8 124.313C148.68 124.373 148.573 124.457 148.486 124.559C148.4 124.661 148.334 124.78 148.294 124.908C148.254 125.036 148.24 125.17 148.253 125.304C148.266 125.437 148.306 125.566 148.37 125.684L149.301 127.537C148.345 128.207 147.57 129.106 147.049 130.151L145.076 129.499C144.951 129.456 144.818 129.438 144.686 129.447C144.554 129.455 144.425 129.49 144.306 129.549C144.188 129.607 144.082 129.689 143.995 129.789C143.908 129.889 143.842 130.005 143.801 130.131C143.759 130.257 143.743 130.389 143.753 130.521C143.764 130.653 143.8 130.782 143.86 130.9C143.92 131.018 144.003 131.122 144.104 131.208C144.205 131.293 144.322 131.358 144.449 131.398L146.414 132.051C146.22 133.129 146.285 134.238 146.602 135.287C146.622 135.355 146.643 135.425 146.664 135.493L144.817 136.423C144.593 136.535 144.42 136.727 144.33 136.961C144.241 137.195 144.243 137.453 144.336 137.686C144.428 137.918 144.604 138.108 144.829 138.217C145.055 138.326 145.313 138.346 145.552 138.275C145.608 138.258 145.662 138.236 145.714 138.21L147.565 137.279C147.893 137.751 148.279 138.179 148.713 138.556C148.052 139.682 147.745 140.98 147.833 142.283C147.92 143.586 148.398 144.831 149.204 145.859C150.01 146.886 151.106 147.646 152.351 148.042C153.595 148.437 154.929 148.448 156.18 148.074L165.758 145.201C168.172 144.477 170.198 142.824 171.393 140.606C172.588 138.387 172.852 135.785 172.128 133.372C171.404 130.959 169.751 128.932 167.533 127.737C165.314 126.543 162.712 126.278 160.299 127.002ZM153.54 135.393C152.216 135.553 150.972 136.116 149.978 137.006C149.021 136.14 148.435 134.938 148.343 133.651C148.252 132.364 148.662 131.091 149.487 130.099C150.312 129.107 151.489 128.472 152.772 128.328C154.054 128.183 155.343 128.541 156.368 129.325C154.723 130.939 153.718 133.095 153.54 135.393Z" fill="white"/>
</g>
</g>
<g filter="url(#filter1_d_57_31)">
<rect x="264" y="103" width="64" height="64" rx="32" fill="url(#paint6_radial_57_31)"/>
<rect x="264.5" y="103.5" width="63" height="63" rx="31.5" stroke="url(#paint7_linear_57_31)"/>
<g clip-path="url(#clip3_57_31)">
<path d="M304.005 132.172L304.185 131.499C304.996 128.471 301.041 124.963 294.983 123.339C288.926 121.716 283.746 122.777 282.935 125.805L281.641 130.635C280.965 133.157 283.597 136.01 287.994 137.832L287.815 138.501C287.004 141.529 290.959 145.037 297.017 146.66C303.074 148.283 308.254 147.223 309.065 144.195L310.36 139.365C311.029 136.866 308.498 134.037 304.005 132.172ZM286.696 134.949C284.508 133.655 283.301 132.165 283.572 131.152L284.028 129.453C284.826 130.415 285.995 131.332 287.452 132.127L286.696 134.949ZM297.112 134.715C298.772 134.755 300.242 134.546 301.414 134.112L300.959 135.811C300.688 136.824 298.898 137.51 296.355 137.537L297.112 134.715ZM292.871 142.815C290.682 141.521 289.475 140.031 289.747 139.018L289.882 138.515C290.196 138.612 290.515 138.707 290.842 138.794C291.311 138.92 291.773 139.027 292.229 139.12C292.68 139.433 293.148 139.721 293.63 139.982L292.871 142.815ZM294.314 137.428C293.317 137.312 292.329 137.123 291.36 136.862C290.39 136.604 289.44 136.273 288.519 135.875L289.288 133.002C290.216 133.385 291.167 133.706 292.136 133.965C293.105 134.226 294.09 134.423 295.084 134.555L294.314 137.428ZM300.489 145.294C298.492 145.061 296.539 144.537 294.693 143.741L295.465 140.861C296.391 141.248 297.342 141.572 298.311 141.831C299.279 142.092 300.264 142.289 301.258 142.421L300.489 145.294ZM307.134 143.677C306.862 144.69 305.072 145.377 302.53 145.403L303.286 142.581C304.946 142.621 306.417 142.412 307.589 141.978L307.134 143.677Z" fill="white"/>
</g>
</g>
<g clip-path="url(#clip4_57_31)">
<rect x="328" y="167" width="146" height="64" rx="32" transform="rotate(-90 328 167)" fill="url(#paint8_linear_57_31)"/>
<circle cx="361.57" cy="136.999" r="6" transform="rotate(-89.9958 361.57 136.999)" fill="#A3FF10"/>
<path d="M353.3 116.98L353.3 115.46L367.5 109.66L367.5 111.58L363.34 113.26L363.34 119.22L367.5 120.88L367.5 122.8L353.3 116.98ZM361.94 113.66L355.38 116.22L361.94 118.86L361.94 113.66ZM367.7 103.737C367.7 104.524 367.56 105.244 367.28 105.897C366.987 106.537 366.587 107.097 366.08 107.577C365.573 108.044 364.993 108.411 364.34 108.677C363.687 108.931 362.993 109.057 362.26 109.057C361.273 109.057 360.373 108.837 359.56 108.397C358.747 107.957 358.1 107.337 357.62 106.537C357.127 105.737 356.88 104.811 356.88 103.757C356.88 102.731 357.113 101.837 357.58 101.077C358.033 100.304 358.647 99.7307 359.42 99.3573L359.96 101.077C359.467 101.344 359.087 101.717 358.82 102.197C358.54 102.677 358.4 103.211 358.4 103.797C358.4 104.437 358.567 105.024 358.9 105.557C359.233 106.077 359.693 106.491 360.28 106.797C360.853 107.104 361.513 107.257 362.26 107.257C362.993 107.257 363.66 107.104 364.26 106.797C364.847 106.477 365.313 106.057 365.66 105.537C366.007 105.004 366.18 104.417 366.18 103.777C366.18 103.364 366.107 102.971 365.96 102.597C365.813 102.211 365.62 101.877 365.38 101.597C365.127 101.304 364.853 101.104 364.56 100.997L365.08 99.2773C365.587 99.4907 366.04 99.8173 366.44 100.257C366.827 100.684 367.133 101.197 367.36 101.797C367.587 102.384 367.7 103.031 367.7 103.737ZM366.98 91.8831C367.047 92.0298 367.133 92.2298 367.24 92.4831C367.347 92.7365 367.44 93.0298 367.52 93.3631C367.6 93.6965 367.64 94.0498 367.64 94.4231C367.64 94.8498 367.567 95.2431 367.42 95.6031C367.26 95.9631 367.02 96.2498 366.7 96.4631C366.367 96.6765 365.953 96.7831 365.46 96.7831L358.44 96.7831L358.44 98.2031L357.06 98.2031L357.06 96.7831L353.58 96.7831L353.58 95.0231L357.06 95.0231L357.06 92.6831L358.44 92.6831L358.44 95.0231L364.92 95.0231C365.293 94.9965 365.573 94.8698 365.76 94.6431C365.933 94.4165 366.02 94.1498 366.02 93.8431C366.02 93.4965 365.96 93.1765 365.84 92.8831C365.72 92.5898 365.633 92.3965 365.58 92.3031L366.98 91.8831ZM367.5 90.2519L357.06 90.2519L357.06 88.4919L367.5 88.4919L367.5 90.2519ZM355.1 90.2519L352.9 90.2519L352.9 88.4919L355.1 88.4919L355.1 90.2519ZM367.5 82.6425L357.06 86.7425L357.06 84.9025L365.82 81.6225L357.06 78.3425L357.06 76.6225L367.5 80.7225L367.5 82.6425ZM367.5 74.8612L357.06 74.8612L357.06 73.1012L367.5 73.1012L367.5 74.8612ZM355.1 74.8612L352.9 74.8612L352.9 73.1012L355.1 73.1012L355.1 74.8612ZM366.98 64.8519C367.047 64.9985 367.133 65.1985 367.24 65.4519C367.347 65.7052 367.44 65.9985 367.52 66.3319C367.6 66.6652 367.64 67.0185 367.64 67.3919C367.64 67.8185 367.567 68.2119 367.42 68.5719C367.26 68.9319 367.02 69.2185 366.7 69.4319C366.367 69.6452 365.953 69.7519 365.46 69.7519L358.44 69.7519L358.44 71.1719L357.06 71.1719L357.06 69.7519L353.58 69.7519L353.58 67.9919L357.06 67.9919L357.06 65.6519L358.44 65.6519L358.44 67.9919L364.92 67.9919C365.293 67.9652 365.573 67.8385 365.76 67.6119C365.933 67.3852 366.02 67.1185 366.02 66.8119C366.02 66.4652 365.96 66.1452 365.84 65.8519C365.72 65.5585 365.633 65.3652 365.58 65.2719L366.98 64.8519ZM370.34 62.7406C370.353 62.5673 370.367 62.394 370.38 62.2206C370.407 62.0473 370.42 61.914 370.42 61.8206C370.42 61.6073 370.347 61.4206 370.2 61.2606C370.053 61.1006 369.767 60.9273 369.34 60.7406C368.927 60.5406 368.313 60.2873 367.5 59.9806L357.06 64.4006L357.06 62.5406L365.72 59.0206L357.06 55.8406L357.06 54.1006L370.24 59.1806C370.547 59.3006 370.833 59.4806 371.1 59.7206C371.38 59.9473 371.6 60.2406 371.76 60.6006C371.92 60.9606 372 61.394 372 61.9006C372 62.0206 371.993 62.1473 371.98 62.2806C371.967 62.4006 371.94 62.554 371.9 62.7406L370.34 62.7406Z" fill="white"/>
</g>
<rect x="328.5" y="166.5" width="145" height="63" rx="31.5" transform="rotate(-90 328.5 166.5)" stroke="url(#paint9_linear_57_31)"/>
<rect x="0.63763" y="115.47" width="123" height="63" rx="31.5" transform="rotate(-19.3885 0.63763 115.47)" fill="url(#paint10_linear_57_31)"/>
<rect x="0.63763" y="115.47" width="123" height="63" rx="31.5" transform="rotate(-19.3885 0.63763 115.47)" stroke="url(#paint11_linear_57_31)"/>
<circle cx="39.4436" cy="136.872" r="6" transform="rotate(-19.3843 39.4436 136.872)" fill="#FF3434"/>
<path d="M60.3635 123.901C60.1507 123.778 59.8897 123.679 59.5806 123.604C59.2715 123.529 58.9376 123.484 58.5789 123.469C58.2158 123.441 57.8323 123.456 57.4284 123.513C57.0327 123.554 56.6336 123.645 56.2311 123.786C55.1998 124.149 54.5075 124.612 54.1542 125.175C53.8009 125.737 53.7438 126.358 53.9828 127.037C54.151 127.515 54.4095 127.848 54.7585 128.036C55.1074 128.224 55.5707 128.316 56.1483 128.31C56.7385 128.301 57.4693 128.248 58.3406 128.154C59.3421 128.027 60.2334 127.989 61.0144 128.04C61.7953 128.09 62.4545 128.296 62.9919 128.658C63.5248 129.008 63.9329 129.585 64.2162 130.39C64.4419 131.032 64.5131 131.635 64.4298 132.202C64.3546 132.751 64.1522 133.261 63.8227 133.73C63.4887 134.187 63.0527 134.595 62.5147 134.954C61.9723 135.3 61.3552 135.595 60.6634 135.838C59.9843 136.078 59.2933 136.243 58.5906 136.335C57.8961 136.41 57.2108 136.41 56.5349 136.337C55.859 136.264 55.1964 136.109 54.5473 135.871L54.8539 134.151C55.1304 134.294 55.4635 134.417 55.8532 134.521C56.251 134.607 56.6821 134.667 57.1465 134.702C57.6236 134.732 58.121 134.719 58.6387 134.664C59.1521 134.596 59.6603 134.474 60.1634 134.297C61.1192 133.961 61.8015 133.53 62.2103 133.004C62.6146 132.466 62.6994 131.864 62.4648 131.197C62.2878 130.694 61.9952 130.345 61.5871 130.149C61.1916 129.949 60.6692 129.85 60.0198 129.853C59.3705 129.855 58.5953 129.902 57.6944 129.993C56.7092 130.085 55.8619 130.107 55.1527 130.06C54.439 130 53.8475 129.806 53.3782 129.476C52.9214 129.142 52.5691 128.623 52.3212 127.919C52.0202 127.063 51.9732 126.267 52.1802 125.53C52.3873 124.793 52.8024 124.145 53.4256 123.586C54.0489 123.028 54.8196 122.587 55.7377 122.264C56.3414 122.051 56.9232 121.917 57.4832 121.862C58.0557 121.801 58.6081 121.805 59.1406 121.872C59.673 121.939 60.1833 122.063 60.6712 122.245L60.3635 123.901ZM72.1904 131.082C72.0741 131.194 71.9142 131.342 71.7107 131.527C71.5071 131.711 71.2614 131.897 70.9735 132.083C70.6857 132.269 70.3657 132.424 70.0135 132.548C69.611 132.69 69.2157 132.751 68.8274 132.732C68.4347 132.701 68.0846 132.569 67.7771 132.338C67.4652 132.095 67.2274 131.74 67.0636 131.275L64.7332 124.653L63.3937 125.125L62.9356 123.823L64.2751 123.351L63.1198 120.069L64.78 119.484L65.9353 122.767L68.1426 121.99L68.6007 123.292L66.3934 124.069L68.5446 130.181C68.6937 130.525 68.9061 130.747 69.1819 130.848C69.4532 130.936 69.7335 130.929 70.0228 130.827C70.3498 130.712 70.6318 130.549 70.8686 130.339C71.1055 130.128 71.2591 129.982 71.3294 129.901L72.1904 131.082ZM75.2973 133.551C75.4652 133.506 75.6332 133.461 75.8011 133.416C75.9734 133.383 76.1036 133.352 76.1917 133.321C76.3929 133.25 76.5447 133.119 76.6469 132.927C76.7491 132.736 76.8175 132.408 76.8519 131.943C76.9033 131.487 76.9387 130.825 76.958 129.956L69.3229 121.575L71.0774 120.957L77.2726 127.958L77.3974 118.733L79.0387 118.156L78.6222 132.275C78.6108 132.604 78.5362 132.934 78.3983 133.265C78.2775 133.604 78.0738 133.909 77.7873 134.18C77.5009 134.45 77.1187 134.67 76.6407 134.838C76.5275 134.878 76.4058 134.913 76.2756 134.945C76.158 134.972 76.0045 134.998 75.8152 135.022L75.2973 133.551ZM79.373 113.628L81.0332 113.044L84.9837 124.269C85.174 124.81 85.3668 125.116 85.562 125.189C85.7572 125.262 85.9617 125.26 86.1755 125.185C86.4396 125.092 86.6823 124.978 86.9036 124.844C87.1204 124.697 87.2995 124.563 87.4409 124.443L88.183 125.708C87.9462 125.919 87.6524 126.128 87.3016 126.337C86.9508 126.545 86.6308 126.7 86.3415 126.802C85.7001 127.027 85.1265 127.024 84.6209 126.792C84.1278 126.556 83.7661 126.111 83.536 125.457L79.373 113.628ZM94.0046 124.168C93.2626 124.429 92.5369 124.536 91.8277 124.489C91.1266 124.425 90.4678 124.24 89.8512 123.934C89.2428 123.611 88.7044 123.185 88.236 122.658C87.7801 122.126 87.4305 121.514 87.187 120.822C86.8595 119.891 86.7745 118.967 86.9321 118.049C87.0898 117.131 87.464 116.307 88.0549 115.576C88.6583 114.841 89.4505 114.301 90.4315 113.955C91.4251 113.606 92.3708 113.541 93.2685 113.763C94.1743 113.967 94.9634 114.382 95.6359 115.007C96.3165 115.616 96.8118 116.36 97.1216 117.241C97.1659 117.366 97.2038 117.494 97.2355 117.625C97.2754 117.738 97.3001 117.828 97.3096 117.895L89.1407 120.77C89.4168 121.394 89.7943 121.904 90.2732 122.301C90.7602 122.681 91.2999 122.929 91.8922 123.046C92.4801 123.15 93.057 123.102 93.623 122.903C94.2267 122.691 94.7396 122.341 95.1616 121.853C95.5962 121.361 95.8278 120.834 95.8564 120.273L97.4296 120.164C97.384 120.717 97.2138 121.258 96.9189 121.786C96.6367 122.309 96.2439 122.78 95.7406 123.197C95.2499 123.61 94.6712 123.934 94.0046 124.168ZM88.6791 119.639L95.3953 117.276C95.1193 116.652 94.7377 116.15 94.2507 115.77C93.7636 115.391 93.2262 115.149 92.6383 115.045C92.0504 114.94 91.4609 114.992 90.8697 115.2C90.2912 115.404 89.8054 115.731 89.4122 116.18C89.0191 116.629 88.7516 117.154 88.6098 117.756C88.4806 118.352 88.5037 118.98 88.6791 119.639Z" fill="white"/>
<defs>
<filter id="filter0_d_57_31" x="114" y="91" width="88" height="88" filterUnits="userSpaceOnUse" color-interpolation-filters="sRGB">
<feFlood flood-opacity="0" result="BackgroundImageFix"/>
<feColorMatrix in="SourceAlpha" type="matrix" values="0 0 0 0 0 0 0 0 0 0 0 0 0 0 0 0 0 0 127 0" result="hardAlpha"/>
<feMorphology radius="2" operator="dilate" in="SourceAlpha" result="effect1_dropShadow_57_31"/>
<feOffset/>
<feGaussianBlur stdDeviation="5"/>
<feComposite in2="hardAlpha" operator="out"/>
<feColorMatrix type="matrix" values="0 0 0 0 0.890512 0 0 0 0 0.791326 0 0 0 0 0.146618 0 0 0 0.3 0"/>
<feBlend mode="normal" in2="BackgroundImageFix" result="effect1_dropShadow_57_31"/>
<feBlend mode="normal" in="SourceGraphic" in2="effect1_dropShadow_57_31" result="shape"/>
</filter>
<filter id="filter1_d_57_31" x="252" y="91" width="88" height="88" filterUnits="userSpaceOnUse" color-interpolation-filters="sRGB">
<feFlood flood-opacity="0" result="BackgroundImageFix"/>
<feColorMatrix in="SourceAlpha" type="matrix" values="0 0 0 0 0 0 0 0 0 0 0 0 0 0 0 0 0 0 127 0" result="hardAlpha"/>
<feMorphology radius="2" operator="dilate" in="SourceAlpha" result="effect1_dropShadow_57_31"/>
<feOffset/>
<feGaussianBlur stdDeviation="5"/>
<feComposite in2="hardAlpha" operator="out"/>
<feColorMatrix type="matrix" values="0 0 0 0 0.47451 0 0 0 0 0.792157 0 0 0 0 0.219608 0 0 0 0.3 0"/>
<feBlend mode="normal" in2="BackgroundImageFix" result="effect1_dropShadow_57_31"/>
<feBlend mode="normal" in="SourceGraphic" in2="effect1_dropShadow_57_31" result="shape"/>
</filter>
<linearGradient id="paint0_linear_57_31" x1="295.385" y1="94.2025" x2="229.32" y2="161.691" gradientUnits="userSpaceOnUse">
<stop stop-color="#2E4B6E"/>
<stop offset="1" stop-color="#1B324B"/>
</linearGradient>
<linearGradient id="paint1_linear_57_31" x1="301.231" y1="92.7606" x2="193.319" y2="148.743" gradientUnits="userSpaceOnUse">
<stop stop-color="#B300FF"/>
<stop offset="1" stop-color="#5D0088"/>
</linearGradient>
<linearGradient id="paint2_linear_57_31" x1="152.525" y1="-0.485101" x2="138.878" y2="64.4917" gradientUnits="userSpaceOnUse">
<stop stop-color="#2E4B6E"/>
<stop offset="1" stop-color="#1B324B"/>
</linearGradient>
<linearGradient id="paint3_linear_57_31" x1="160.935" y1="-5.57935" x2="113.629" y2="61.8181" gradientUnits="userSpaceOnUse">
<stop stop-color="#2E547E"/>
<stop offset="1" stop-color="#122132"/>
</linearGradient>
<radialGradient id="paint4_radial_57_31" cx="0" cy="0" r="1" gradientTransform="matrix(-42 52 -33.5221 -39.7458 179.5 107)" gradientUnits="userSpaceOnUse">
<stop stop-color="#FFDD00"/>
<stop offset="0.802369" stop-color="#7F7000"/>
</radialGradient>
<linearGradient id="paint5_linear_57_31" x1="179.5" y1="105.5" x2="138" y2="182.5" gradientUnits="userSpaceOnUse">
<stop stop-color="#FFDD00"/>
<stop offset="1" stop-color="#5A5817"/>
</linearGradient>
<radialGradient id="paint6_radial_57_31" cx="0" cy="0" r="1" gradientUnits="userSpaceOnUse" gradientTransform="translate(307.5 97.5) rotate(108.122) scale(86.8058 66.4128)">
<stop stop-color="#B2FF4C"/>
<stop offset="0.802369" stop-color="#0F6612"/>
</radialGradient>
<linearGradient id="paint7_linear_57_31" x1="306.577" y1="95.4" x2="270" y2="198" gradientUnits="userSpaceOnUse">
<stop stop-color="#AAFF3A"/>
<stop offset="0.607837" stop-color="#1D680E"/>
</linearGradient>
<linearGradient id="paint8_linear_57_31" x1="474" y1="209" x2="328" y2="185.5" gradientUnits="userSpaceOnUse">
<stop stop-color="#2E4B6E"/>
<stop offset="1" stop-color="#1B324B"/>
</linearGradient>
<linearGradient id="paint9_linear_57_31" x1="474" y1="214" x2="340.365" y2="160.205" gradientUnits="userSpaceOnUse">
<stop stop-color="#2E547E"/>
<stop offset="1" stop-color="#122132"/>
</linearGradient>
<linearGradient id="paint10_linear_57_31" x1="111.225" y1="124.45" x2="35.0839" y2="176.633" gradientUnits="userSpaceOnUse">
<stop stop-color="#2E4B6E"/>
<stop offset="1" stop-color="#1B324B"/>
</linearGradient>
<linearGradient id="paint11_linear_57_31" x1="108.116" y1="121.236" x2="12.6703" y2="159.587" gradientUnits="userSpaceOnUse">
<stop stop-color="#2E547E"/>
<stop offset="1" stop-color="#122132"/>
</linearGradient>
<clipPath id="clip0_57_31">
<rect x="171" y="92.1677" width="157" height="64" rx="32" transform="rotate(-27.7773 171 92.1677)" fill="white"/>
</clipPath>
<clipPath id="clip1_57_31">
<rect x="66.3779" y="0.491699" width="145" height="64" rx="32" transform="rotate(20.3261 66.3779 0.491699)" fill="white"/>
</clipPath>
<clipPath id="clip2_57_31">
<rect width="32" height="32" fill="white" transform="translate(138.077 124.272) rotate(-16.6982)"/>
</clipPath>
<clipPath id="clip3_57_31">
<rect width="32" height="32" fill="white" transform="translate(284.686 115.404) rotate(15)"/>
</clipPath>
<clipPath id="clip4_57_31">
<rect x="328" y="167" width="146" height="64" rx="32" transform="rotate(-90 328 167)" fill="white"/>
</clipPath>
</defs>
</svg>
