<svg width="848" height="368" viewBox="0 0 848 368" fill="none" xmlns="http://www.w3.org/2000/svg">
<g filter="url(#filter0_di_57_31)">
<path d="M793.614 47.7307C795.144 46.137 797.676 46.0849 799.27 47.6145C800.863 49.1442 800.915 51.676 799.386 53.2698L712.302 144H764C766.209 144 768 145.791 768 148C768 150.209 766.209 152 764 152H704.623L602.883 258H656.343L697.172 217.172C698.734 215.61 701.266 215.61 702.828 217.172C704.39 218.734 704.39 221.266 702.828 222.828L667.657 258H749.727L795.008 239.789C797.057 238.965 799.387 239.959 800.211 242.008C801.035 244.058 800.042 246.387 797.992 247.211L751.992 265.711C751.518 265.902 751.011 266 750.5 266H644.825L718.5 308.536C720.413 309.641 721.068 312.087 719.964 314C718.859 315.913 716.413 316.569 714.5 315.464L628.826 266H426C423.791 266 422 264.209 422 262C422 259.791 423.791 258 426 258H591.795L632 216.112V148C632 145.791 633.791 144 636 144C638.209 144 640 145.791 640 148V207.777L696 149.432V76.5002C696 74.2911 697.791 72.5002 700 72.5002C702.209 72.5002 704 74.2911 704 76.5002V141.097L793.614 47.7307Z" fill="#0F1D2C"/>
</g>
<g filter="url(#filter1_d_57_31)">
<path d="M636 151V215L593.5 259H506.262" stroke="#FF4500" stroke-linecap="round" stroke-linejoin="round"/>
</g>
<g filter="url(#filter2_d_57_31)">
<path d="M700 78V149.579L593.738 260.079H506.5" stroke="#FFD700" stroke-linecap="round" stroke-linejoin="round"/>
</g>
<g filter="url(#filter3_d_57_31)">
<path d="M763.113 147.5H704L594.238 262H507" stroke="#00CC66" stroke-linecap="round" stroke-linejoin="round"/>
</g>
<g filter="url(#filter4_d_57_31)">
<path d="M782.5 64.5L594 261H506.762" stroke="#0000FF" stroke-linecap="round" stroke-linejoin="round"/>
</g>
<g filter="url(#filter5_di_57_31)">
<path d="M53.8865 47.7307C52.3568 46.137 49.825 46.0849 48.2312 47.6145C46.6376 49.1442 46.5854 51.676 48.115 53.2698L135.199 144H83.5007C81.2916 144 79.5007 145.791 79.5007 148C79.5009 150.209 81.2917 152 83.5007 152H142.878L244.618 258H191.158L150.329 217.172C148.767 215.61 146.235 215.61 144.673 217.172C143.111 218.734 143.111 221.266 144.673 222.828L179.844 258H97.7742L52.4929 239.789C50.4434 238.965 48.114 239.959 47.2898 242.008C46.4658 244.058 47.4591 246.387 49.5085 247.211L95.5085 265.711C95.9829 265.902 96.4894 266 97.0007 266H202.676L129.001 308.536C127.088 309.641 126.432 312.087 127.537 314C128.641 315.913 131.088 316.569 133.001 315.464L218.675 266H421.501C423.71 266 425.501 264.209 425.501 262C425.501 259.791 423.71 258 421.501 258H255.706L215.501 216.112V148C215.501 145.791 213.71 144 211.501 144C209.292 144 207.501 145.791 207.501 148V207.777L151.501 149.432V76.5002C151.501 74.2911 149.71 72.5002 147.501 72.5002C145.292 72.5002 143.501 74.2911 143.501 76.5002V141.097L53.8865 47.7307Z" fill="#0F1D2C"/>
</g>
<g filter="url(#filter6_d_57_31)">
<path d="M768 255L746 264H518" stroke="#00CED1" stroke-linecap="round" stroke-linejoin="round"/>
</g>
<g filter="url(#filter7_d_57_31)">
<path d="M732 321.292L634.5 265L518 265" stroke="#FF69B4" stroke-linecap="round" stroke-linejoin="round"/>
</g>
<g filter="url(#filter8_d_57_31)">
<path d="M691.5 229L657 263L518 263" stroke="#9933FF" stroke-linecap="round" stroke-linejoin="round"/>
</g>
<g filter="url(#filter9_d_57_31)">
<path d="M211.5 151V215L254 259H341.238" stroke="#FF4500" stroke-linecap="round" stroke-linejoin="round"/>
</g>
<g filter="url(#filter10_d_57_31)">
<path d="M147.5 78V149.579L253.762 260.079H341" stroke="#FFD700" stroke-linecap="round" stroke-linejoin="round"/>
</g>
<g filter="url(#filter11_d_57_31)">
<path d="M84.3872 147.5H143.5L253.262 262H340.5" stroke="#00CC66" stroke-linecap="round" stroke-linejoin="round"/>
</g>
<g filter="url(#filter12_d_57_31)">
<path d="M64.9999 64.5L253.5 261H340.738" stroke="#0000FF" stroke-linecap="round" stroke-linejoin="round"/>
</g>
<g filter="url(#filter13_d_57_31)">
<path d="M79.5 255L101.5 264H329.5" stroke="#00CED1" stroke-linecap="round" stroke-linejoin="round"/>
</g>
<g filter="url(#filter14_d_57_31)">
<path d="M115.5 321.292L213 265L329.5 265" stroke="#FF69B4" stroke-linecap="round" stroke-linejoin="round"/>
</g>
<g filter="url(#filter15_d_57_31)">
<path d="M156 229L190.5 263L329.5 263" stroke="#9933FF" stroke-linecap="round" stroke-linejoin="round"/>
</g>
<g filter="url(#filter16_d_57_31)">
<rect x="84" y="284" width="64" height="64" rx="32" fill="url(#paint0_linear_57_31)"/>
<rect x="84.5" y="284.5" width="63" height="63" rx="31.5" stroke="url(#paint1_linear_57_31)"/>
<path opacity="0.2" d="M123.594 311.594L120.5 314.5L123.5 322.75L121.25 325L116.75 318.25L114.5 320.5V322.75L112.25 325L110.75 321.25L107 319.75L109.25 317.5H111.5L113.75 315.25L107 310.75L109.25 308.5L117.5 311.5L120.406 308.406C120.829 307.984 121.402 307.746 122 307.746C122.598 307.746 123.171 307.984 123.594 308.406C124.016 308.829 124.254 309.402 124.254 310C124.254 310.598 124.016 311.171 123.594 311.594Z" fill="white"/>
<path d="M121.375 314.707L124.107 312.136L124.123 312.121C124.685 311.558 125.001 310.795 125.001 309.999C125.001 309.203 124.685 308.44 124.123 307.878C123.56 307.315 122.797 306.999 122.001 306.999C121.205 306.999 120.442 307.315 119.879 307.878L119.864 307.893L117.293 310.625L109.512 307.794C109.377 307.745 109.232 307.736 109.093 307.767C108.954 307.798 108.826 307.868 108.725 307.968L106.475 310.218C106.397 310.297 106.337 310.392 106.299 310.496C106.262 310.601 106.248 310.712 106.259 310.823C106.27 310.933 106.305 311.04 106.363 311.135C106.42 311.23 106.497 311.311 106.589 311.373L112.579 315.365L111.19 316.75H109.25C109.051 316.75 108.861 316.829 108.72 316.969L106.47 319.219C106.383 319.307 106.318 319.415 106.282 319.534C106.246 319.652 106.24 319.778 106.265 319.899C106.29 320.021 106.344 320.134 106.423 320.23C106.502 320.325 106.604 320.399 106.719 320.446L110.171 321.827L111.549 325.272L111.554 325.287C111.602 325.402 111.678 325.504 111.775 325.583C111.872 325.661 111.987 325.715 112.109 325.738C112.232 325.761 112.359 325.753 112.478 325.714C112.596 325.676 112.704 325.609 112.79 325.518L115.028 323.28C115.098 323.21 115.154 323.128 115.192 323.037C115.23 322.946 115.25 322.849 115.25 322.75V320.81L116.634 319.427L120.627 325.416C120.688 325.509 120.769 325.586 120.864 325.643C120.96 325.7 121.066 325.736 121.177 325.746C121.287 325.757 121.398 325.744 121.503 325.706C121.607 325.669 121.702 325.609 121.781 325.531L124.031 323.281C124.132 323.18 124.202 323.052 124.232 322.913C124.263 322.773 124.254 322.628 124.205 322.494L121.375 314.707ZM121.368 323.823L117.375 317.833C117.314 317.74 117.233 317.662 117.138 317.604C117.042 317.547 116.936 317.511 116.825 317.5C116.8 317.499 116.776 317.499 116.751 317.5C116.652 317.5 116.555 317.519 116.464 317.557C116.373 317.595 116.29 317.65 116.22 317.719L113.97 319.969C113.901 320.039 113.845 320.122 113.807 320.213C113.77 320.304 113.75 320.401 113.75 320.5V322.44L112.525 323.665L111.447 320.969C111.409 320.875 111.353 320.79 111.281 320.719C111.21 320.647 111.125 320.591 111.031 320.553L108.337 319.475L109.561 318.25H111.5C111.599 318.25 111.696 318.231 111.787 318.193C111.878 318.156 111.961 318.1 112.031 318.031L114.281 315.781C114.359 315.702 114.419 315.607 114.457 315.503C114.494 315.398 114.508 315.287 114.497 315.176C114.486 315.066 114.451 314.959 114.394 314.864C114.336 314.769 114.259 314.687 114.166 314.626L108.178 310.632L109.443 309.367L117.245 312.204C117.382 312.255 117.532 312.264 117.674 312.23C117.817 312.197 117.947 312.123 118.048 312.017L120.948 308.934C121.233 308.673 121.607 308.532 121.994 308.541C122.38 308.549 122.748 308.706 123.021 308.979C123.295 309.252 123.452 309.62 123.461 310.006C123.47 310.392 123.329 310.767 123.069 311.052L119.987 313.953C119.881 314.053 119.807 314.183 119.773 314.326C119.74 314.468 119.749 314.618 119.8 314.755L122.637 322.557L121.368 323.823Z" fill="white"/>
</g>
<g filter="url(#filter17_d_57_31)">
<rect x="700" y="284" width="64" height="64" rx="32" fill="url(#paint2_linear_57_31)"/>
<rect x="700.5" y="284.5" width="63" height="63" rx="31.5" stroke="url(#paint3_linear_57_31)"/>
<path opacity="0.2" d="M741.75 313V322C741.75 322.199 741.671 322.39 741.53 322.53C741.39 322.671 741.199 322.75 741 322.75H723C722.801 322.75 722.61 322.671 722.47 322.53C722.329 322.39 722.25 322.199 722.25 322V313H741.75Z" fill="white"/>
<path d="M741 308.5H723C722.602 308.5 722.221 308.658 721.939 308.939C721.658 309.221 721.5 309.602 721.5 310V322C721.5 322.398 721.658 322.779 721.939 323.061C722.221 323.342 722.602 323.5 723 323.5H741C741.398 323.5 741.779 323.342 742.061 323.061C742.342 322.779 742.5 322.398 742.5 322V310C742.5 309.602 742.342 309.221 742.061 308.939C741.779 308.658 741.398 308.5 741 308.5ZM741 310V312.25H723V310H741ZM741 322H723V313.75H741V322ZM739.5 319.75C739.5 319.949 739.421 320.14 739.28 320.28C739.14 320.421 738.949 320.5 738.75 320.5H735.75C735.551 320.5 735.36 320.421 735.22 320.28C735.079 320.14 735 319.949 735 319.75C735 319.551 735.079 319.36 735.22 319.22C735.36 319.079 735.551 319 735.75 319H738.75C738.949 319 739.14 319.079 739.28 319.22C739.421 319.36 739.5 319.551 739.5 319.75ZM733.5 319.75C733.5 319.949 733.421 320.14 733.28 320.28C733.14 320.421 732.949 320.5 732.75 320.5H731.25C731.051 320.5 730.86 320.421 730.72 320.28C730.579 320.14 730.5 319.949 730.5 319.75C730.5 319.551 730.579 319.36 730.72 319.22C730.86 319.079 731.051 319 731.25 319H732.75C732.949 319 733.14 319.079 733.28 319.22C733.421 319.36 733.5 319.551 733.5 319.75Z" fill="white"/>
</g>
<g filter="url(#filter18_d_57_31)">
<rect x="180" y="116" width="64" height="64" rx="32" fill="url(#paint4_linear_57_31)"/>
<rect x="180.5" y="116.5" width="63" height="63" rx="31.5" stroke="url(#paint5_linear_57_31)"/>
<path opacity="0.2" d="M218.968 148.276L212.577 155.98C212.506 156.065 212.418 156.133 212.318 156.179C212.219 156.226 212.11 156.25 212 156.25C211.89 156.25 211.781 156.226 211.682 156.179C211.582 156.133 211.494 156.065 211.423 155.98L205.032 148.276C206.987 146.644 209.453 145.75 212 145.75C214.547 145.75 217.013 146.644 218.968 148.276Z" fill="white"/>
<path d="M223.24 143.585C223.216 143.386 223.153 143.194 223.054 143.02C222.954 142.846 222.821 142.693 222.661 142.572C219.597 140.241 215.85 138.985 212 139C208.15 138.985 204.403 140.241 201.339 142.572C201.179 142.693 201.046 142.846 200.946 143.02C200.847 143.194 200.784 143.386 200.76 143.585C200.737 143.784 200.754 143.985 200.811 144.177C200.868 144.369 200.964 144.547 201.092 144.7L210.842 156.459C210.983 156.629 211.16 156.766 211.36 156.86C211.561 156.953 211.779 157.001 212 157C212.22 157 212.438 156.952 212.638 156.859C212.837 156.765 213.014 156.629 213.154 156.459L222.904 144.7C223.033 144.547 223.129 144.369 223.187 144.177C223.245 143.986 223.263 143.784 223.24 143.585ZM212 155.5L206.106 148.394C207.824 147.161 209.886 146.499 212 146.499C214.114 146.499 216.176 147.161 217.894 148.394L212 155.5ZM218.855 147.235C216.865 145.782 214.464 144.999 212 144.999C209.536 144.999 207.135 145.782 205.145 147.235L202.258 143.757C205.06 141.631 208.483 140.486 212 140.5C215.517 140.486 218.94 141.631 221.742 143.757L218.855 147.235Z" fill="white"/>
</g>
<g filter="url(#filter19_d_57_31)">
<rect x="20" y="212" width="64" height="64" rx="32" fill="url(#paint6_linear_57_31)"/>
<rect x="20.5" y="212.5" width="63" height="63" rx="31.5" stroke="url(#paint7_linear_57_31)"/>
<path opacity="0.2" d="M56.5 243.25V250H47.5V243.25H56.5Z" fill="white"/>
<path d="M60.0306 239.719L54.7806 234.469C54.7109 234.4 54.6282 234.345 54.5371 234.307C54.4461 234.269 54.3485 234.25 54.25 234.25H45.25C44.8522 234.25 44.4706 234.408 44.1893 234.689C43.908 234.971 43.75 235.352 43.75 235.75V252.25C43.75 252.648 43.908 253.029 44.1893 253.311C44.4706 253.592 44.8522 253.75 45.25 253.75H58.75C59.1478 253.75 59.5294 253.592 59.8107 253.311C60.092 253.029 60.25 252.648 60.25 252.25V240.25C60.2501 240.151 60.2307 240.054 60.1931 239.963C60.1555 239.872 60.1003 239.789 60.0306 239.719ZM58.75 252.25H45.25V235.75H53.9397L58.75 240.56V252.25ZM56.5 242.5H47.5C47.3011 242.5 47.1103 242.579 46.9697 242.72C46.829 242.86 46.75 243.051 46.75 243.25V250C46.75 250.199 46.829 250.39 46.9697 250.53C47.1103 250.671 47.3011 250.75 47.5 250.75H56.5C56.6989 250.75 56.8897 250.671 57.0303 250.53C57.171 250.39 57.25 250.199 57.25 250V243.25C57.25 243.051 57.171 242.86 57.0303 242.72C56.8897 242.579 56.6989 242.5 56.5 242.5ZM55.75 249.25H54.25V246.25C54.25 246.051 54.171 245.86 54.0303 245.72C53.8897 245.579 53.6989 245.5 53.5 245.5C53.3011 245.5 53.1103 245.579 52.9697 245.72C52.829 245.86 52.75 246.051 52.75 246.25V249.25H51.25V246.25C51.25 246.051 51.171 245.86 51.0303 245.72C50.8897 245.579 50.6989 245.5 50.5 245.5C50.3011 245.5 50.1103 245.579 49.9697 245.72C49.829 245.86 49.75 246.051 49.75 246.25V249.25H48.25V244H55.75V249.25Z" fill="white"/>
</g>
<g filter="url(#filter20_d_57_31)">
<rect x="116" y="44" width="64" height="64" rx="32" fill="url(#paint8_linear_57_31)"/>
<rect x="116.5" y="44.5" width="63" height="63" rx="31.5" stroke="url(#paint9_linear_57_31)"/>
<path opacity="0.2" d="M155.5 70.75V81.25C155.5 81.4489 155.421 81.6397 155.28 81.7803C155.14 81.921 154.949 82 154.75 82H152.5V73.75L148.75 70H143.5V67.75C143.5 67.5511 143.579 67.3603 143.72 67.2197C143.86 67.079 144.051 67 144.25 67H151.75L155.5 70.75Z" fill="white"/>
<path d="M156.031 70.2194L152.281 66.4694C152.211 66.3997 152.128 66.3445 152.037 66.3069C151.946 66.2693 151.849 66.2499 151.75 66.25H144.25C143.852 66.25 143.471 66.408 143.189 66.6893C142.908 66.9706 142.75 67.3522 142.75 67.75V69.25H141.25C140.852 69.25 140.471 69.408 140.189 69.6893C139.908 69.9706 139.75 70.3522 139.75 70.75V84.25C139.75 84.6478 139.908 85.0294 140.189 85.3107C140.471 85.592 140.852 85.75 141.25 85.75H151.75C152.148 85.75 152.529 85.592 152.811 85.3107C153.092 85.0294 153.25 84.6478 153.25 84.25V82.75H154.75C155.148 82.75 155.529 82.592 155.811 82.3107C156.092 82.0294 156.25 81.6478 156.25 81.25V70.75C156.25 70.6515 156.231 70.5539 156.193 70.4629C156.155 70.3718 156.1 70.2891 156.031 70.2194ZM151.75 84.25H141.25V70.75H148.44L151.75 74.0603V81.985C151.75 81.9906 151.75 81.9953 151.75 82C151.75 82.0047 151.75 82.0094 151.75 82.015V84.25ZM154.75 81.25H153.25V73.75C153.25 73.6515 153.231 73.5539 153.193 73.4629C153.155 73.3718 153.1 73.2891 153.031 73.2194L149.281 69.4694C149.211 69.3997 149.128 69.3445 149.037 69.3069C148.946 69.2693 148.849 69.2499 148.75 69.25H144.25V67.75H151.44L154.75 71.0603V81.25ZM149.5 78.25C149.5 78.4489 149.421 78.6397 149.28 78.7803C149.14 78.921 148.949 79 148.75 79H144.25C144.051 79 143.86 78.921 143.72 78.7803C143.579 78.6397 143.5 78.4489 143.5 78.25C143.5 78.0511 143.579 77.8603 143.72 77.7197C143.86 77.579 144.051 77.5 144.25 77.5H148.75C148.949 77.5 149.14 77.579 149.28 77.7197C149.421 77.8603 149.5 78.0511 149.5 78.25ZM149.5 81.25C149.5 81.4489 149.421 81.6397 149.28 81.7803C149.14 81.921 148.949 82 148.75 82H144.25C144.051 82 143.86 81.921 143.72 81.7803C143.579 81.6397 143.5 81.4489 143.5 81.25C143.5 81.0511 143.579 80.8603 143.72 80.7197C143.86 80.579 144.051 80.5 144.25 80.5H148.75C148.949 80.5 149.14 80.579 149.28 80.7197C149.421 80.8603 149.5 81.0511 149.5 81.25Z" fill="white"/>
</g>
<g filter="url(#filter21_d_57_31)">
<rect x="764" y="212" width="64" height="64" rx="32" fill="url(#paint10_linear_57_31)"/>
<rect x="764.5" y="212.5" width="63" height="63" rx="31.5" stroke="url(#paint11_linear_57_31)"/>
<path opacity="0.2" d="M805 243.791V246.25C805 251.5 796 253.75 796 253.75C796 253.75 787 251.5 787 246.25V243.791C787 243.634 787.05 243.48 787.142 243.352C787.234 243.225 787.363 243.129 787.513 243.079L796 240.25L804.487 243.079C804.637 243.129 804.766 243.225 804.858 243.352C804.95 243.48 805 243.634 805 243.791Z" fill="white"/>
<path d="M804.724 242.368L803.5 241.959V237.25C803.5 236.852 803.342 236.471 803.061 236.189C802.779 235.908 802.398 235.75 802 235.75H796.75V234.25C796.75 234.051 796.671 233.86 796.53 233.72C796.39 233.579 796.199 233.5 796 233.5C795.801 233.5 795.61 233.579 795.47 233.72C795.329 233.86 795.25 234.051 795.25 234.25V235.75H790C789.602 235.75 789.221 235.908 788.939 236.189C788.658 236.471 788.5 236.852 788.5 237.25V241.959L787.276 242.368C786.977 242.467 786.717 242.658 786.533 242.914C786.349 243.169 786.25 243.476 786.25 243.791V246.25C786.25 252.019 795.427 254.38 795.818 254.477C795.938 254.507 796.062 254.507 796.182 254.477C796.573 254.38 805.75 252.019 805.75 246.25V243.791C805.75 243.476 805.651 243.169 805.467 242.914C805.283 242.658 805.023 242.467 804.724 242.368ZM790 237.25H802V241.459L796.237 239.538C796.083 239.487 795.917 239.487 795.763 239.538L790 241.459V237.25ZM804.25 246.25C804.25 248.585 802.03 250.281 800.167 251.297C798.841 252 797.444 252.563 796 252.974C794.565 252.567 793.176 252.01 791.857 251.312C788.462 249.47 787.75 247.543 787.75 246.25V243.791L795.25 241.291V247.75C795.25 247.949 795.329 248.14 795.47 248.28C795.61 248.421 795.801 248.5 796 248.5C796.199 248.5 796.39 248.421 796.53 248.28C796.671 248.14 796.75 247.949 796.75 247.75V241.291L804.25 243.791V246.25Z" fill="white"/>
</g>
<g filter="url(#filter22_d_57_31)">
<rect x="732" y="116" width="64" height="64" rx="32" fill="url(#paint12_linear_57_31)"/>
<rect x="732.5" y="116.5" width="63" height="63" rx="31.5" stroke="url(#paint13_linear_57_31)"/>
<path opacity="0.2" d="M768.5 147.25C768.5 150.25 764 152.5 764 152.5C764 152.5 759.5 150.25 759.5 147.25C759.5 146.653 759.737 146.081 760.159 145.659C760.581 145.237 761.153 145 761.75 145C762.347 145 762.919 145.237 763.341 145.659C763.763 146.081 764 146.653 764 147.25C764 146.653 764.237 146.081 764.659 145.659C765.081 145.237 765.653 145 766.25 145C766.847 145 767.419 145.237 767.841 145.659C768.263 146.081 768.5 146.653 768.5 147.25Z" fill="white"/>
<path d="M771.5 139H769.25V138.25C769.25 138.051 769.171 137.86 769.03 137.72C768.89 137.579 768.699 137.5 768.5 137.5C768.301 137.5 768.11 137.579 767.97 137.72C767.829 137.86 767.75 138.051 767.75 138.25V139H760.25V138.25C760.25 138.051 760.171 137.86 760.03 137.72C759.89 137.579 759.699 137.5 759.5 137.5C759.301 137.5 759.11 137.579 758.97 137.72C758.829 137.86 758.75 138.051 758.75 138.25V139H756.5C756.102 139 755.721 139.158 755.439 139.439C755.158 139.721 755 140.102 755 140.5V155.5C755 155.898 755.158 156.279 755.439 156.561C755.721 156.842 756.102 157 756.5 157H771.5C771.898 157 772.279 156.842 772.561 156.561C772.842 156.279 773 155.898 773 155.5V140.5C773 140.102 772.842 139.721 772.561 139.439C772.279 139.158 771.898 139 771.5 139ZM771.5 155.5H756.5V140.5H758.75V141.25C758.75 141.449 758.829 141.64 758.97 141.78C759.11 141.921 759.301 142 759.5 142C759.699 142 759.89 141.921 760.03 141.78C760.171 141.64 760.25 141.449 760.25 141.25V140.5H767.75V141.25C767.75 141.449 767.829 141.64 767.97 141.78C768.11 141.921 768.301 142 768.5 142C768.699 142 768.89 141.921 769.03 141.78C769.171 141.64 769.25 141.449 769.25 141.25V140.5H771.5V155.5ZM766.25 144.25C765.824 144.25 765.403 144.34 765.015 144.516C764.627 144.692 764.281 144.948 764 145.268C763.597 144.811 763.065 144.488 762.473 144.341C761.882 144.194 761.26 144.231 760.69 144.446C760.121 144.661 759.63 145.044 759.283 145.545C758.936 146.046 758.75 146.641 758.75 147.25C758.75 150.674 763.464 153.07 763.664 153.171C763.769 153.223 763.883 153.251 764 153.251C764.117 153.251 764.231 153.223 764.336 153.171C764.536 153.07 769.25 150.674 769.25 147.25C769.25 146.454 768.934 145.691 768.371 145.129C767.809 144.566 767.046 144.25 766.25 144.25ZM764 151.65C762.707 150.919 760.25 149.142 760.25 147.25C760.25 146.852 760.408 146.471 760.689 146.189C760.971 145.908 761.352 145.75 761.75 145.75C762.148 145.75 762.529 145.908 762.811 146.189C763.092 146.471 763.25 146.852 763.25 147.25C763.25 147.449 763.329 147.64 763.47 147.78C763.61 147.921 763.801 148 764 148C764.199 148 764.39 147.921 764.53 147.78C764.671 147.64 764.75 147.449 764.75 147.25C764.75 146.852 764.908 146.471 765.189 146.189C765.471 145.908 765.852 145.75 766.25 145.75C766.648 145.75 767.029 145.908 767.311 146.189C767.592 146.471 767.75 146.852 767.75 147.25C767.75 149.143 765.293 150.92 764 151.65Z" fill="white"/>
</g>
<g filter="url(#filter23_d_57_31)">
<rect x="116" y="188" width="64" height="64" rx="32" fill="url(#paint14_linear_57_31)"/>
<rect x="116.5" y="188.5" width="63" height="63" rx="31.5" stroke="url(#paint15_linear_57_31)"/>
<path opacity="0.2" d="M159.25 218.5V223.75H146.5V215.5H156.25C157.046 215.5 157.809 215.816 158.371 216.379C158.934 216.941 159.25 217.704 159.25 218.5Z" fill="white"/>
<path d="M156.25 214.75H139V212.5C139 212.301 138.921 212.11 138.78 211.97C138.64 211.829 138.449 211.75 138.25 211.75C138.051 211.75 137.86 211.829 137.72 211.97C137.579 212.11 137.5 212.301 137.5 212.5V227.5C137.5 227.699 137.579 227.89 137.72 228.03C137.86 228.171 138.051 228.25 138.25 228.25C138.449 228.25 138.64 228.171 138.78 228.03C138.921 227.89 139 227.699 139 227.5V224.5H158.5V227.5C158.5 227.699 158.579 227.89 158.72 228.03C158.86 228.171 159.051 228.25 159.25 228.25C159.449 228.25 159.64 228.171 159.78 228.03C159.921 227.89 160 227.699 160 227.5V218.5C160 217.505 159.605 216.552 158.902 215.848C158.198 215.145 157.245 214.75 156.25 214.75ZM139 216.25H145.75V223H139V216.25ZM147.25 223V216.25H156.25C156.847 216.25 157.419 216.487 157.841 216.909C158.263 217.331 158.5 217.903 158.5 218.5V223H147.25Z" fill="white"/>
</g>
<g filter="url(#filter24_d_57_31)">
<rect x="604" y="116" width="64" height="64" rx="32" fill="url(#paint16_linear_57_31)"/>
<rect x="604.5" y="116.5" width="63" height="63" rx="31.5" stroke="url(#paint17_linear_57_31)"/>
<path opacity="0.2" d="M628.5 153.25H632.25V155.5C632.25 155.699 632.171 155.89 632.03 156.03C631.89 156.171 631.699 156.25 631.5 156.25H629.25C629.051 156.25 628.86 156.171 628.72 156.03C628.579 155.89 628.5 155.699 628.5 155.5V153.25ZM639.75 155.5C639.75 155.699 639.829 155.89 639.97 156.03C640.11 156.171 640.301 156.25 640.5 156.25H642.75C642.949 156.25 643.14 156.171 643.28 156.03C643.421 155.89 643.5 155.699 643.5 155.5V153.25H639.75V155.5ZM628.5 142.75V146.5H643.5V142.75H628.5Z" fill="white"/>
<path d="M641.25 139H630.75C629.954 139 629.191 139.316 628.629 139.879C628.066 140.441 627.75 141.204 627.75 142V155.5C627.75 155.898 627.908 156.279 628.189 156.561C628.471 156.842 628.852 157 629.25 157H631.5C631.898 157 632.279 156.842 632.561 156.561C632.842 156.279 633 155.898 633 155.5V154H639V155.5C639 155.898 639.158 156.279 639.439 156.561C639.721 156.842 640.102 157 640.5 157H642.75C643.148 157 643.529 156.842 643.811 156.561C644.092 156.279 644.25 155.898 644.25 155.5V142C644.25 141.204 643.934 140.441 643.371 139.879C642.809 139.316 642.046 139 641.25 139ZM629.25 152.5V147.25H642.75V152.5H629.25ZM629.25 143.5H642.75V145.75H629.25V143.5ZM630.75 140.5H641.25C641.648 140.5 642.029 140.658 642.311 140.939C642.592 141.221 642.75 141.602 642.75 142H629.25C629.25 141.602 629.408 141.221 629.689 140.939C629.971 140.658 630.352 140.5 630.75 140.5ZM631.5 155.5H629.25V154H631.5V155.5ZM640.5 155.5V154H642.75V155.5H640.5ZM633.75 149.875C633.75 150.098 633.684 150.315 633.56 150.5C633.437 150.685 633.261 150.829 633.056 150.914C632.85 151 632.624 151.022 632.406 150.978C632.187 150.935 631.987 150.828 631.83 150.67C631.672 150.513 631.565 150.313 631.522 150.094C631.478 149.876 631.5 149.65 631.586 149.444C631.671 149.239 631.815 149.063 632 148.94C632.185 148.816 632.402 148.75 632.625 148.75C632.923 148.75 633.21 148.869 633.42 149.08C633.631 149.29 633.75 149.577 633.75 149.875ZM640.5 149.875C640.5 150.098 640.434 150.315 640.31 150.5C640.187 150.685 640.011 150.829 639.806 150.914C639.6 151 639.374 151.022 639.156 150.978C638.937 150.935 638.737 150.828 638.58 150.67C638.422 150.513 638.315 150.313 638.272 150.094C638.228 149.876 638.25 149.65 638.336 149.444C638.421 149.239 638.565 149.063 638.75 148.94C638.935 148.816 639.152 148.75 639.375 148.75C639.673 148.75 639.96 148.869 640.17 149.08C640.381 149.29 640.5 149.577 640.5 149.875ZM647.25 143.5V145.75C647.25 145.949 647.171 146.14 647.03 146.28C646.89 146.421 646.699 146.5 646.5 146.5C646.301 146.5 646.11 146.421 645.97 146.28C645.829 146.14 645.75 145.949 645.75 145.75V143.5C645.75 143.301 645.829 143.11 645.97 142.97C646.11 142.829 646.301 142.75 646.5 142.75C646.699 142.75 646.89 142.829 647.03 142.97C647.171 143.11 647.25 143.301 647.25 143.5ZM626.25 143.5V145.75C626.25 145.949 626.171 146.14 626.03 146.28C625.89 146.421 625.699 146.5 625.5 146.5C625.301 146.5 625.11 146.421 624.97 146.28C624.829 146.14 624.75 145.949 624.75 145.75V143.5C624.75 143.301 624.829 143.11 624.97 142.97C625.11 142.829 625.301 142.75 625.5 142.75C625.699 142.75 625.89 142.829 626.03 142.97C626.171 143.11 626.25 143.301 626.25 143.5Z" fill="white"/>
</g>
<g filter="url(#filter25_d_57_31)">
<rect x="52" y="116" width="64" height="64" rx="32" fill="url(#paint18_linear_57_31)"/>
<rect x="52.5" y="116.5" width="63" height="63" rx="31.5" stroke="url(#paint19_linear_57_31)"/>
<path opacity="0.2" d="M83.7075 146.288L74.5453 149.625C74.3262 149.023 74.2278 148.384 74.2556 147.745C74.2834 147.105 74.4369 146.477 74.7074 145.897C75.2537 144.725 76.2431 143.818 77.4581 143.375C78.6731 142.933 80.0141 142.991 81.1861 143.537C82.358 144.084 83.265 145.073 83.7075 146.288ZM91.9575 144.875L82.7953 148.212C83.2377 149.427 84.1447 150.416 85.3167 150.963C85.897 151.233 86.5249 151.387 87.1646 151.414C87.8042 151.442 88.4431 151.344 89.0447 151.125C89.6463 150.906 90.1988 150.57 90.6708 150.138C91.1427 149.705 91.5249 149.184 91.7954 148.603C92.0658 148.023 92.2194 147.395 92.2472 146.755C92.275 146.116 92.1766 145.477 91.9575 144.875Z" fill="white"/>
<path d="M93.5306 156.469L88.9913 151.931C89.0944 151.9 89.1966 151.867 89.2978 151.831C90.6987 151.32 91.8398 150.275 92.4701 148.924C93.1005 147.573 93.1687 146.026 92.6597 144.625C92.5916 144.438 92.4522 144.286 92.272 144.202C92.0918 144.118 91.8856 144.109 91.6988 144.177L87.555 145.684C87.585 145.626 87.615 145.568 87.6422 145.508C88.1126 144.5 88.2736 143.375 88.1048 142.276C87.936 141.177 87.4451 140.152 86.6941 139.331C85.9431 138.511 84.9656 137.932 83.8854 137.666C82.8051 137.401 81.6705 137.463 80.625 137.842C80.5322 137.876 80.4468 137.927 80.3739 137.993C80.3009 138.06 80.2417 138.14 80.1997 138.229C80.1578 138.318 80.1338 138.415 80.1292 138.513C80.1247 138.612 80.1396 138.71 80.1731 138.803L81.6806 142.947C81.6225 142.917 81.5644 142.887 81.5044 142.86C80.4962 142.39 79.3714 142.23 78.2721 142.399C77.1728 142.568 76.1484 143.06 75.3284 143.811C74.5083 144.562 73.9295 145.54 73.6649 146.62C73.4004 147.701 73.4621 148.835 73.8422 149.881C73.9103 150.067 74.0497 150.22 74.2299 150.304C74.4101 150.388 74.6163 150.397 74.8031 150.329L78.9469 148.82C78.9169 148.879 78.8869 148.937 78.8597 148.997C78.3899 150.006 78.2296 151.13 78.3989 152.23C78.5682 153.329 79.0597 154.353 79.8111 155.173C80.5625 155.994 81.5402 156.572 82.6205 156.837C83.7008 157.101 84.8354 157.04 85.8806 156.66C86.0675 156.592 86.2196 156.452 86.3036 156.272C86.3877 156.092 86.3967 155.886 86.3288 155.699L84.8203 151.555C84.8794 151.585 84.9375 151.615 84.9975 151.642C85.6593 151.952 86.3752 152.13 87.105 152.165L92.4694 157.531C92.6101 157.671 92.801 157.75 93 157.75C93.199 157.75 93.3899 157.671 93.5306 157.531C93.6714 157.39 93.7504 157.199 93.7504 157C93.7504 156.801 93.6714 156.61 93.5306 156.469ZM84.2878 139.389C84.9704 139.706 85.5531 140.204 85.973 140.829C86.3929 141.453 86.6339 142.181 86.6699 142.933C86.7059 143.684 86.5356 144.432 86.1773 145.093C85.8191 145.755 85.2866 146.307 84.6375 146.687L81.8616 139.059C82.6851 138.919 83.5318 139.034 84.2878 139.389ZM75.0591 148.639C74.8962 147.687 75.0728 146.707 75.5581 145.872C76.0435 145.036 76.8068 144.398 77.7149 144.067C78.623 143.737 79.6182 143.736 80.527 144.064C81.4357 144.393 82.2004 145.03 82.6875 145.864L75.0591 148.639ZM82.2188 155.113C81.5372 154.795 80.9553 154.298 80.5361 153.673C80.1169 153.049 79.8763 152.322 79.8403 151.571C79.8043 150.82 79.9743 150.073 80.3318 149.412C80.6894 148.751 81.221 148.199 81.8691 147.818L84.6441 155.443C83.8209 155.583 82.9745 155.468 82.2188 155.113ZM87.4275 150.671H87.4172C86.6925 150.676 85.979 150.491 85.3482 150.135C84.7174 149.778 84.1914 149.262 83.8228 148.637L91.4475 145.862C91.5454 146.449 91.5152 147.05 91.359 147.625C91.2027 148.199 90.9242 148.733 90.5424 149.19C90.1606 149.647 89.6846 150.015 89.1469 150.271C88.6093 150.527 88.0228 150.663 87.4275 150.671Z" fill="white"/>
</g>
<g filter="url(#filter26_d_57_31)">
<rect x="20" y="20" width="64" height="64" rx="32" fill="url(#paint20_linear_57_31)"/>
<rect x="20.5" y="20.5" width="63" height="63" rx="31.5" stroke="url(#paint21_linear_57_31)"/>
<path opacity="0.2" d="M58.75 52C58.75 52.7956 59.0661 53.5587 59.6287 54.1213C60.1913 54.6839 60.9544 55 61.75 55V58C61.75 58.1989 61.671 58.3897 61.5303 58.5303C61.3897 58.671 61.1989 58.75 61 58.75H49V45.25H61C61.1989 45.25 61.3897 45.329 61.5303 45.4697C61.671 45.6103 61.75 45.8011 61.75 46V49C60.9544 49 60.1913 49.3161 59.6287 49.8787C59.0661 50.4413 58.75 51.2044 58.75 52Z" fill="white"/>
<path d="M61.75 49.75C61.9489 49.75 62.1397 49.671 62.2803 49.5303C62.421 49.3897 62.5 49.1989 62.5 49V46C62.5 45.6022 62.342 45.2206 62.0607 44.9393C61.7794 44.658 61.3978 44.5 61 44.5H43C42.6022 44.5 42.2206 44.658 41.9393 44.9393C41.658 45.2206 41.5 45.6022 41.5 46V49C41.5 49.1989 41.579 49.3897 41.7197 49.5303C41.8603 49.671 42.0511 49.75 42.25 49.75C42.8467 49.75 43.419 49.9871 43.841 50.409C44.2629 50.831 44.5 51.4033 44.5 52C44.5 52.5967 44.2629 53.169 43.841 53.591C43.419 54.0129 42.8467 54.25 42.25 54.25C42.0511 54.25 41.8603 54.329 41.7197 54.4697C41.579 54.6103 41.5 54.8011 41.5 55V58C41.5 58.3978 41.658 58.7794 41.9393 59.0607C42.2206 59.342 42.6022 59.5 43 59.5H61C61.3978 59.5 61.7794 59.342 62.0607 59.0607C62.342 58.7794 62.5 58.3978 62.5 58V55C62.5 54.8011 62.421 54.6103 62.2803 54.4697C62.1397 54.329 61.9489 54.25 61.75 54.25C61.1533 54.25 60.581 54.0129 60.159 53.591C59.7371 53.169 59.5 52.5967 59.5 52C59.5 51.4033 59.7371 50.831 60.159 50.409C60.581 49.9871 61.1533 49.75 61.75 49.75ZM43 55.675C43.8477 55.5029 44.6099 55.043 45.1573 54.3732C45.7047 53.7034 46.0038 52.865 46.0038 52C46.0038 51.135 45.7047 50.2966 45.1573 49.6268C44.6099 48.957 43.8477 48.4971 43 48.325V46H48.25V58H43V55.675ZM61 55.675V58H49.75V46H61V48.325C60.1523 48.4971 59.3901 48.957 58.8427 49.6268C58.2953 50.2966 57.9962 51.135 57.9962 52C57.9962 52.865 58.2953 53.7034 58.8427 54.3732C59.3901 55.043 60.1523 55.5029 61 55.675Z" fill="white"/>
</g>
<g filter="url(#filter27_d_57_31)">
<rect x="668" y="44" width="64" height="64" rx="32" fill="url(#paint22_linear_57_31)"/>
<rect x="668.5" y="44.5" width="63" height="63" rx="31.5" stroke="url(#paint23_linear_57_31)"/>
<path opacity="0.2" d="M708.25 75.25L706.151 82.9469C706.108 83.1057 706.013 83.2459 705.883 83.3459C705.752 83.4459 705.592 83.5 705.427 83.5H694.573C694.408 83.5 694.248 83.4459 694.117 83.3459C693.987 83.2459 693.892 83.1057 693.849 82.9469L691.75 75.25L700 76.75L708.25 75.25Z" fill="white"/>
<path d="M708.974 75.0531L706.875 67.3553C706.788 67.0378 706.599 66.7576 706.338 66.5578C706.076 66.3581 705.756 66.2499 705.427 66.25H694.573C694.244 66.2499 693.924 66.3581 693.662 66.5578C693.401 66.7576 693.212 67.0378 693.125 67.3553L691.026 75.0531C690.992 75.1821 690.992 75.3179 691.026 75.4469L693.125 83.1447C693.212 83.4622 693.401 83.7424 693.662 83.9422C693.924 84.1419 694.244 84.2501 694.573 84.25H695.5L694.15 86.05C694.091 86.1288 694.048 86.2185 694.023 86.3139C693.999 86.4093 693.994 86.5086 694.008 86.6061C694.021 86.7036 694.054 86.7974 694.105 86.8821C694.155 86.9669 694.221 87.0409 694.3 87.1C694.379 87.1591 694.468 87.2021 694.564 87.2265C694.659 87.251 694.759 87.2564 694.856 87.2425C694.954 87.2285 695.047 87.1955 695.132 87.1454C695.217 87.0952 695.291 87.0288 695.35 86.95L697.375 84.25H702.625L704.65 86.95C704.769 87.1091 704.947 87.2143 705.144 87.2425C705.341 87.2706 705.541 87.2193 705.7 87.1C705.859 86.9807 705.964 86.803 705.992 86.6061C706.021 86.4092 705.969 86.2091 705.85 86.05L704.5 84.25H705.427C705.756 84.2501 706.076 84.1419 706.338 83.9422C706.599 83.7424 706.788 83.4622 706.875 83.1447L708.974 75.4469C709.008 75.3179 709.008 75.1821 708.974 75.0531ZM694.573 67.75H705.427L707.313 74.6584L700 75.9878L692.688 74.6584L694.573 67.75ZM692.792 76.2006L699.25 77.3763V82.75H694.573L692.792 76.2006ZM705.427 82.75H700.75V77.3763L707.213 76.2006L705.427 82.75ZM696.25 72.25C696.25 72.0511 696.329 71.8603 696.47 71.7197C696.61 71.579 696.801 71.5 697 71.5H703C703.199 71.5 703.39 71.579 703.53 71.7197C703.671 71.8603 703.75 72.0511 703.75 72.25C703.75 72.4489 703.671 72.6397 703.53 72.7803C703.39 72.921 703.199 73 703 73H697C696.801 73 696.61 72.921 696.47 72.7803C696.329 72.6397 696.25 72.4489 696.25 72.25Z" fill="white"/>
</g>
<g filter="url(#filter28_d_57_31)">
<rect x="764" y="20" width="64" height="64" rx="32" fill="url(#paint24_linear_57_31)"/>
<rect x="764.5" y="20.5" width="63" height="63" rx="31.5" stroke="url(#paint25_linear_57_31)"/>
<path opacity="0.2" d="M804.25 44.5V49.7284C804.25 56.3687 800.556 61.75 796 61.75C791.444 61.75 787.75 56.3687 787.75 49.7303V44.5C787.75 44.378 787.779 44.2579 787.836 44.1499C787.893 44.042 787.975 43.9495 788.076 43.8805C788.176 43.8116 788.292 43.7681 788.413 43.754C788.534 43.74 788.657 43.7556 788.771 43.7997C790.188 44.3509 792.917 45.2228 796 45.2228C799.083 45.2228 801.812 44.3509 803.229 43.8015C803.343 43.7575 803.465 43.7419 803.586 43.7559C803.707 43.7699 803.823 43.8131 803.923 43.8819C804.024 43.9507 804.106 44.0429 804.163 44.1506C804.22 44.2583 804.25 44.3782 804.25 44.5Z" fill="white"/>
<path d="M804.344 43.2626C804.143 43.1246 803.911 43.0378 803.669 43.0098C803.427 42.9819 803.181 43.0136 802.954 43.1023C801.639 43.6141 798.983 44.4729 796 44.4729C793.017 44.4729 790.36 43.6141 789.043 43.1023C788.816 43.014 788.57 42.9825 788.328 43.0105C788.086 43.0384 787.854 43.125 787.653 43.2627C787.452 43.4003 787.287 43.585 787.173 43.8006C787.06 44.0162 787 44.2563 787 44.5001V49.7285C787 53.0885 787.905 56.2582 789.548 58.6516C791.251 61.1323 793.542 62.4954 796 62.4954C798.458 62.4954 800.749 61.1295 802.452 58.6516C804.095 56.2601 805 53.0904 805 49.7304V44.5001C805 44.256 804.94 44.0157 804.825 43.8C804.711 43.5844 804.546 43.3999 804.344 43.2626ZM803.5 49.7313C803.5 52.7913 802.688 55.6591 801.215 57.806C799.801 59.8657 797.949 61.0001 796 61.0001C794.051 61.0001 792.199 59.8657 790.785 57.8051C789.312 55.6563 788.5 52.7904 788.5 49.7304V44.5001C789.917 45.0504 792.773 45.9729 796 45.9729C799.227 45.9729 802.084 45.0504 803.5 44.5001V49.7323V49.7313ZM801.812 51.5004C801.945 51.6496 802.013 51.8453 802.001 52.0445C801.989 52.2437 801.899 52.4301 801.75 52.5626C801.601 52.6951 801.405 52.7629 801.206 52.7512C801.006 52.7394 800.82 52.6489 800.688 52.4998C800.436 52.2185 799.858 52.0001 799.375 52.0001C798.892 52.0001 798.31 52.2195 798.062 52.4998C797.93 52.6489 797.743 52.7393 797.544 52.751C797.345 52.7627 797.149 52.6948 797 52.5621C796.851 52.4295 796.76 52.243 796.749 52.0437C796.737 51.8444 796.805 51.6486 796.938 51.4995C797.473 50.9013 798.451 50.5001 799.375 50.5001C800.299 50.5001 801.273 50.9013 801.812 51.4995V51.5004ZM792.625 52.0001C792.138 52.0001 791.56 52.2195 791.312 52.4998C791.18 52.6489 790.993 52.7393 790.794 52.751C790.595 52.7627 790.399 52.6948 790.25 52.5621C790.101 52.4295 790.01 52.243 789.999 52.0437C789.987 51.8444 790.055 51.6486 790.188 51.4995C790.727 50.9013 791.704 50.5001 792.625 50.5001C793.546 50.5001 794.523 50.9013 795.062 51.4995C795.195 51.6486 795.263 51.8444 795.251 52.0437C795.24 52.243 795.149 52.4295 795 52.5621C794.926 52.6278 794.84 52.6783 794.747 52.7107C794.653 52.7431 794.555 52.7568 794.456 52.751C794.257 52.7393 794.07 52.6489 793.938 52.4998C793.69 52.2195 793.112 52.0001 792.625 52.0001ZM799.792 56.2366C799.327 56.789 798.746 57.233 798.091 57.5376C797.436 57.8422 796.722 58 796 58C795.278 58 794.564 57.8422 793.909 57.5376C793.254 57.233 792.673 56.789 792.208 56.2366C792.144 56.1617 792.095 56.0749 792.065 55.9813C792.034 55.8876 792.023 55.7888 792.031 55.6906C792.038 55.5924 792.065 55.4967 792.11 55.4089C792.155 55.3212 792.216 55.2431 792.291 55.1791C792.366 55.1152 792.453 55.0666 792.547 55.0362C792.64 55.0058 792.739 54.9941 792.837 55.0018C792.935 55.0096 793.031 55.0366 793.119 55.0813C793.207 55.1261 793.285 55.1877 793.349 55.2626C793.673 55.6501 794.079 55.9618 794.537 56.1756C794.995 56.3895 795.494 56.5003 796 56.5003C796.506 56.5003 797.005 56.3895 797.463 56.1756C797.921 55.9618 798.327 55.6501 798.651 55.2626C798.715 55.1877 798.793 55.1261 798.881 55.0813C798.969 55.0366 799.065 55.0096 799.163 55.0018C799.261 54.9941 799.36 55.0058 799.453 55.0362C799.547 55.0666 799.634 55.1152 799.709 55.1791C799.784 55.2431 799.845 55.3212 799.89 55.4089C799.935 55.4967 799.962 55.5924 799.969 55.6906C799.977 55.7888 799.966 55.8876 799.935 55.9813C799.905 56.0749 799.856 56.1617 799.792 56.2366Z" fill="white"/>
</g>
<g filter="url(#filter29_d_57_31)">
<rect x="668" y="188" width="64" height="64" rx="32" fill="url(#paint26_linear_57_31)"/>
<rect x="668.5" y="188.5" width="63" height="63" rx="31.5" stroke="url(#paint27_linear_57_31)"/>
<path opacity="0.2" d="M709 218.5H691L693.802 212.195C693.861 212.063 693.957 211.95 694.079 211.871C694.2 211.792 694.342 211.75 694.487 211.75H705.513C705.658 211.75 705.8 211.792 705.921 211.871C706.043 211.95 706.139 212.063 706.198 212.195L709 218.5Z" fill="white"/>
<path d="M710.5 217.75H709.487L706.883 211.891C706.765 211.626 706.573 211.4 706.33 211.242C706.087 211.084 705.803 211 705.513 211H694.487C694.197 211 693.913 211.084 693.67 211.242C693.427 211.4 693.235 211.626 693.117 211.891L690.512 217.75H689.5C689.301 217.75 689.11 217.829 688.97 217.97C688.829 218.11 688.75 218.301 688.75 218.5C688.75 218.699 688.829 218.89 688.97 219.03C689.11 219.171 689.301 219.25 689.5 219.25H690.25V226.75C690.25 227.148 690.408 227.529 690.689 227.811C690.971 228.092 691.352 228.25 691.75 228.25H694C694.398 228.25 694.779 228.092 695.061 227.811C695.342 227.529 695.5 227.148 695.5 226.75V225.25H704.5V226.75C704.5 227.148 704.658 227.529 704.939 227.811C705.221 228.092 705.602 228.25 706 228.25H708.25C708.648 228.25 709.029 228.092 709.311 227.811C709.592 227.529 709.75 227.148 709.75 226.75V219.25H710.5C710.699 219.25 710.89 219.171 711.03 219.03C711.171 218.89 711.25 218.699 711.25 218.5C711.25 218.301 711.171 218.11 711.03 217.97C710.89 217.829 710.699 217.75 710.5 217.75ZM694.487 212.5H705.513L707.846 217.75H692.154L694.487 212.5ZM708.25 226.75H706V224.5C706 224.301 705.921 224.11 705.78 223.97C705.64 223.829 705.449 223.75 705.25 223.75H694.75C694.551 223.75 694.36 223.829 694.22 223.97C694.079 224.11 694 224.301 694 224.5V226.75H691.75V219.25H708.25V226.75Z" fill="white"/>
</g>
<g filter="url(#filter30_f_57_31)">
<path d="M512 231L589 256.926V265.222L512 287V231Z" fill="url(#paint28_linear_57_31)"/>
</g>
<g filter="url(#filter31_f_57_31)">
<path d="M336 232L259 257.926V266.222L336 288V232Z" fill="url(#paint29_linear_57_31)"/>
</g>
<g filter="url(#filter32_d_57_31)">
<rect x="319" y="218" width="210" height="82" rx="41" fill="white"/>
<rect x="319" y="218" width="210" height="82" rx="41" fill="url(#paint30_radial_57_31)"/>
<rect x="319.5" y="218.5" width="209" height="81" rx="40.5" stroke="url(#paint31_linear_57_31)"/>
<path d="M390.2 253.944V267H388.04V249.96H389.864L400.28 263.28V249.984H402.44V267H400.472L390.2 253.944ZM413.541 267.12C412.181 267.12 411.037 266.888 410.109 266.424C409.181 265.944 408.437 265.304 407.877 264.504C407.317 263.688 406.909 262.768 406.653 261.744C406.397 260.72 406.269 259.664 406.269 258.576V249.96H408.429V258.576C408.429 259.408 408.509 260.224 408.669 261.024C408.845 261.808 409.125 262.512 409.509 263.136C409.893 263.76 410.413 264.256 411.069 264.624C411.725 264.992 412.541 265.176 413.517 265.176C414.509 265.176 415.333 264.992 415.989 264.624C416.645 264.24 417.165 263.736 417.549 263.112C417.933 262.472 418.205 261.76 418.365 260.976C418.541 260.192 418.629 259.392 418.629 258.576V249.96H420.789V258.576C420.789 259.728 420.653 260.824 420.381 261.864C420.125 262.888 419.709 263.792 419.133 264.576C418.557 265.36 417.805 265.984 416.877 266.448C415.965 266.896 414.853 267.12 413.541 267.12ZM410.709 247.536V245.088H412.485V247.536H410.709ZM414.597 247.536V245.088H416.373V247.536H414.597ZM425.106 249.96L430.746 264.288L436.362 249.96H438.642L431.73 267H429.762L422.826 249.96H425.106ZM440.938 267V249.96H443.098V267H440.938ZM452.357 249.96H454.181L461.141 267H458.837L456.821 262.008H449.669L447.677 267H445.373L452.357 249.96ZM456.341 260.328L453.269 252.456L450.101 260.328H456.341Z" fill="white"/>
</g>
<defs>
<filter id="filter0_di_57_31" x="420" y="46.5005" width="380.501" height="271.5" filterUnits="userSpaceOnUse" color-interpolation-filters="sRGB">
<feFlood flood-opacity="0" result="BackgroundImageFix"/>
<feColorMatrix in="SourceAlpha" type="matrix" values="0 0 0 0 0 0 0 0 0 0 0 0 0 0 0 0 0 0 127 0" result="hardAlpha"/>
<feOffset dx="-1" dy="1"/>
<feGaussianBlur stdDeviation="0.5"/>
<feComposite in2="hardAlpha" operator="out"/>
<feColorMatrix type="matrix" values="0 0 0 0 0.392756 0 0 0 0 0.437955 0 0 0 0 0.543419 0 0 0 0.1 0"/>
<feBlend mode="normal" in2="BackgroundImageFix" result="effect1_dropShadow_57_31"/>
<feBlend mode="normal" in="SourceGraphic" in2="effect1_dropShadow_57_31" result="shape"/>
<feColorMatrix in="SourceAlpha" type="matrix" values="0 0 0 0 0 0 0 0 0 0 0 0 0 0 0 0 0 0 127 0" result="hardAlpha"/>
<feOffset dx="-1" dy="1"/>
<feGaussianBlur stdDeviation="1"/>
<feComposite in2="hardAlpha" operator="arithmetic" k2="-1" k3="1"/>
<feColorMatrix type="matrix" values="0 0 0 0 0 0 0 0 0 0 0 0 0 0 0 0 0 0 0.25 0"/>
<feBlend mode="normal" in2="shape" result="effect2_innerShadow_57_31"/>
</filter>
<filter id="filter1_d_57_31" x="501.762" y="146.5" width="138.739" height="117" filterUnits="userSpaceOnUse" color-interpolation-filters="sRGB">
<feFlood flood-opacity="0" result="BackgroundImageFix"/>
<feColorMatrix in="SourceAlpha" type="matrix" values="0 0 0 0 0 0 0 0 0 0 0 0 0 0 0 0 0 0 127 0" result="hardAlpha"/>
<feOffset/>
<feGaussianBlur stdDeviation="2"/>
<feComposite in2="hardAlpha" operator="out"/>
<feColorMatrix type="matrix" values="0 0 0 0 1 0 0 0 0 0.270588 0 0 0 0 0 0 0 0 1 0"/>
<feBlend mode="normal" in2="BackgroundImageFix" result="effect1_dropShadow_57_31"/>
<feBlend mode="normal" in="SourceGraphic" in2="effect1_dropShadow_57_31" result="shape"/>
</filter>
<filter id="filter2_d_57_31" x="502" y="73.5" width="202.5" height="191.079" filterUnits="userSpaceOnUse" color-interpolation-filters="sRGB">
<feFlood flood-opacity="0" result="BackgroundImageFix"/>
<feColorMatrix in="SourceAlpha" type="matrix" values="0 0 0 0 0 0 0 0 0 0 0 0 0 0 0 0 0 0 127 0" result="hardAlpha"/>
<feOffset/>
<feGaussianBlur stdDeviation="2"/>
<feComposite in2="hardAlpha" operator="out"/>
<feColorMatrix type="matrix" values="0 0 0 0 1 0 0 0 0 0.843137 0 0 0 0 0 0 0 0 1 0"/>
<feBlend mode="normal" in2="BackgroundImageFix" result="effect1_dropShadow_57_31"/>
<feBlend mode="normal" in="SourceGraphic" in2="effect1_dropShadow_57_31" result="shape"/>
</filter>
<filter id="filter3_d_57_31" x="502.5" y="143" width="265.113" height="123.5" filterUnits="userSpaceOnUse" color-interpolation-filters="sRGB">
<feFlood flood-opacity="0" result="BackgroundImageFix"/>
<feColorMatrix in="SourceAlpha" type="matrix" values="0 0 0 0 0 0 0 0 0 0 0 0 0 0 0 0 0 0 127 0" result="hardAlpha"/>
<feOffset/>
<feGaussianBlur stdDeviation="2"/>
<feComposite in2="hardAlpha" operator="out"/>
<feColorMatrix type="matrix" values="0 0 0 0 0 0 0 0 0 0.8 0 0 0 0 0.4 0 0 0 1 0"/>
<feBlend mode="normal" in2="BackgroundImageFix" result="effect1_dropShadow_57_31"/>
<feBlend mode="normal" in="SourceGraphic" in2="effect1_dropShadow_57_31" result="shape"/>
</filter>
<filter id="filter4_d_57_31" x="502.262" y="60" width="284.738" height="205.5" filterUnits="userSpaceOnUse" color-interpolation-filters="sRGB">
<feFlood flood-opacity="0" result="BackgroundImageFix"/>
<feColorMatrix in="SourceAlpha" type="matrix" values="0 0 0 0 0 0 0 0 0 0 0 0 0 0 0 0 0 0 127 0" result="hardAlpha"/>
<feOffset/>
<feGaussianBlur stdDeviation="2"/>
<feComposite in2="hardAlpha" operator="out"/>
<feColorMatrix type="matrix" values="0 0 0 0 0 0 0 0 0 0 0 0 0 0 1 0 0 0 1 0"/>
<feBlend mode="normal" in2="BackgroundImageFix" result="effect1_dropShadow_57_31"/>
<feBlend mode="normal" in="SourceGraphic" in2="effect1_dropShadow_57_31" result="shape"/>
</filter>
<filter id="filter5_di_57_31" x="45" y="46.5005" width="380.501" height="271.5" filterUnits="userSpaceOnUse" color-interpolation-filters="sRGB">
<feFlood flood-opacity="0" result="BackgroundImageFix"/>
<feColorMatrix in="SourceAlpha" type="matrix" values="0 0 0 0 0 0 0 0 0 0 0 0 0 0 0 0 0 0 127 0" result="hardAlpha"/>
<feOffset dx="-1" dy="1"/>
<feGaussianBlur stdDeviation="0.5"/>
<feComposite in2="hardAlpha" operator="out"/>
<feColorMatrix type="matrix" values="0 0 0 0 0.392756 0 0 0 0 0.437955 0 0 0 0 0.543419 0 0 0 0.1 0"/>
<feBlend mode="normal" in2="BackgroundImageFix" result="effect1_dropShadow_57_31"/>
<feBlend mode="normal" in="SourceGraphic" in2="effect1_dropShadow_57_31" result="shape"/>
<feColorMatrix in="SourceAlpha" type="matrix" values="0 0 0 0 0 0 0 0 0 0 0 0 0 0 0 0 0 0 127 0" result="hardAlpha"/>
<feOffset dx="-1" dy="1"/>
<feGaussianBlur stdDeviation="1"/>
<feComposite in2="hardAlpha" operator="arithmetic" k2="-1" k3="1"/>
<feColorMatrix type="matrix" values="0 0 0 0 0 0 0 0 0 0 0 0 0 0 0 0 0 0 0.25 0"/>
<feBlend mode="normal" in2="shape" result="effect2_innerShadow_57_31"/>
</filter>
<filter id="filter6_d_57_31" x="513.5" y="250.5" width="259" height="18.0002" filterUnits="userSpaceOnUse" color-interpolation-filters="sRGB">
<feFlood flood-opacity="0" result="BackgroundImageFix"/>
<feColorMatrix in="SourceAlpha" type="matrix" values="0 0 0 0 0 0 0 0 0 0 0 0 0 0 0 0 0 0 127 0" result="hardAlpha"/>
<feOffset/>
<feGaussianBlur stdDeviation="2"/>
<feComposite in2="hardAlpha" operator="out"/>
<feColorMatrix type="matrix" values="0 0 0 0 0 0 0 0 0 0.807843 0 0 0 0 0.819608 0 0 0 1 0"/>
<feBlend mode="normal" in2="BackgroundImageFix" result="effect1_dropShadow_57_31"/>
<feBlend mode="normal" in="SourceGraphic" in2="effect1_dropShadow_57_31" result="shape"/>
</filter>
<filter id="filter7_d_57_31" x="513.5" y="260.5" width="223" height="65.2917" filterUnits="userSpaceOnUse" color-interpolation-filters="sRGB">
<feFlood flood-opacity="0" result="BackgroundImageFix"/>
<feColorMatrix in="SourceAlpha" type="matrix" values="0 0 0 0 0 0 0 0 0 0 0 0 0 0 0 0 0 0 127 0" result="hardAlpha"/>
<feOffset/>
<feGaussianBlur stdDeviation="2"/>
<feComposite in2="hardAlpha" operator="out"/>
<feColorMatrix type="matrix" values="0 0 0 0 1 0 0 0 0 0.411765 0 0 0 0 0.705882 0 0 0 1 0"/>
<feBlend mode="normal" in2="BackgroundImageFix" result="effect1_dropShadow_57_31"/>
<feBlend mode="normal" in="SourceGraphic" in2="effect1_dropShadow_57_31" result="shape"/>
</filter>
<filter id="filter8_d_57_31" x="513.5" y="224.5" width="182.5" height="43" filterUnits="userSpaceOnUse" color-interpolation-filters="sRGB">
<feFlood flood-opacity="0" result="BackgroundImageFix"/>
<feColorMatrix in="SourceAlpha" type="matrix" values="0 0 0 0 0 0 0 0 0 0 0 0 0 0 0 0 0 0 127 0" result="hardAlpha"/>
<feOffset/>
<feGaussianBlur stdDeviation="2"/>
<feComposite in2="hardAlpha" operator="out"/>
<feColorMatrix type="matrix" values="0 0 0 0 0.6 0 0 0 0 0.2 0 0 0 0 1 0 0 0 1 0"/>
<feBlend mode="normal" in2="BackgroundImageFix" result="effect1_dropShadow_57_31"/>
<feBlend mode="normal" in="SourceGraphic" in2="effect1_dropShadow_57_31" result="shape"/>
</filter>
<filter id="filter9_d_57_31" x="207" y="146.5" width="138.739" height="117" filterUnits="userSpaceOnUse" color-interpolation-filters="sRGB">
<feFlood flood-opacity="0" result="BackgroundImageFix"/>
<feColorMatrix in="SourceAlpha" type="matrix" values="0 0 0 0 0 0 0 0 0 0 0 0 0 0 0 0 0 0 127 0" result="hardAlpha"/>
<feOffset/>
<feGaussianBlur stdDeviation="2"/>
<feComposite in2="hardAlpha" operator="out"/>
<feColorMatrix type="matrix" values="0 0 0 0 1 0 0 0 0 0.270588 0 0 0 0 0 0 0 0 1 0"/>
<feBlend mode="normal" in2="BackgroundImageFix" result="effect1_dropShadow_57_31"/>
<feBlend mode="normal" in="SourceGraphic" in2="effect1_dropShadow_57_31" result="shape"/>
</filter>
<filter id="filter10_d_57_31" x="143" y="73.5" width="202.5" height="191.079" filterUnits="userSpaceOnUse" color-interpolation-filters="sRGB">
<feFlood flood-opacity="0" result="BackgroundImageFix"/>
<feColorMatrix in="SourceAlpha" type="matrix" values="0 0 0 0 0 0 0 0 0 0 0 0 0 0 0 0 0 0 127 0" result="hardAlpha"/>
<feOffset/>
<feGaussianBlur stdDeviation="2"/>
<feComposite in2="hardAlpha" operator="out"/>
<feColorMatrix type="matrix" values="0 0 0 0 1 0 0 0 0 0.843137 0 0 0 0 0 0 0 0 1 0"/>
<feBlend mode="normal" in2="BackgroundImageFix" result="effect1_dropShadow_57_31"/>
<feBlend mode="normal" in="SourceGraphic" in2="effect1_dropShadow_57_31" result="shape"/>
</filter>
<filter id="filter11_d_57_31" x="79.8872" y="143" width="265.113" height="123.5" filterUnits="userSpaceOnUse" color-interpolation-filters="sRGB">
<feFlood flood-opacity="0" result="BackgroundImageFix"/>
<feColorMatrix in="SourceAlpha" type="matrix" values="0 0 0 0 0 0 0 0 0 0 0 0 0 0 0 0 0 0 127 0" result="hardAlpha"/>
<feOffset/>
<feGaussianBlur stdDeviation="2"/>
<feComposite in2="hardAlpha" operator="out"/>
<feColorMatrix type="matrix" values="0 0 0 0 0 0 0 0 0 0.8 0 0 0 0 0.4 0 0 0 1 0"/>
<feBlend mode="normal" in2="BackgroundImageFix" result="effect1_dropShadow_57_31"/>
<feBlend mode="normal" in="SourceGraphic" in2="effect1_dropShadow_57_31" result="shape"/>
</filter>
<filter id="filter12_d_57_31" x="60.4999" y="60" width="284.739" height="205.5" filterUnits="userSpaceOnUse" color-interpolation-filters="sRGB">
<feFlood flood-opacity="0" result="BackgroundImageFix"/>
<feColorMatrix in="SourceAlpha" type="matrix" values="0 0 0 0 0 0 0 0 0 0 0 0 0 0 0 0 0 0 127 0" result="hardAlpha"/>
<feOffset/>
<feGaussianBlur stdDeviation="2"/>
<feComposite in2="hardAlpha" operator="out"/>
<feColorMatrix type="matrix" values="0 0 0 0 0 0 0 0 0 0 0 0 0 0 1 0 0 0 1 0"/>
<feBlend mode="normal" in2="BackgroundImageFix" result="effect1_dropShadow_57_31"/>
<feBlend mode="normal" in="SourceGraphic" in2="effect1_dropShadow_57_31" result="shape"/>
</filter>
<filter id="filter13_d_57_31" x="74.9999" y="250.5" width="259" height="18.0002" filterUnits="userSpaceOnUse" color-interpolation-filters="sRGB">
<feFlood flood-opacity="0" result="BackgroundImageFix"/>
<feColorMatrix in="SourceAlpha" type="matrix" values="0 0 0 0 0 0 0 0 0 0 0 0 0 0 0 0 0 0 127 0" result="hardAlpha"/>
<feOffset/>
<feGaussianBlur stdDeviation="2"/>
<feComposite in2="hardAlpha" operator="out"/>
<feColorMatrix type="matrix" values="0 0 0 0 0 0 0 0 0 0.807843 0 0 0 0 0.819608 0 0 0 1 0"/>
<feBlend mode="normal" in2="BackgroundImageFix" result="effect1_dropShadow_57_31"/>
<feBlend mode="normal" in="SourceGraphic" in2="effect1_dropShadow_57_31" result="shape"/>
</filter>
<filter id="filter14_d_57_31" x="111" y="260.5" width="223" height="65.2917" filterUnits="userSpaceOnUse" color-interpolation-filters="sRGB">
<feFlood flood-opacity="0" result="BackgroundImageFix"/>
<feColorMatrix in="SourceAlpha" type="matrix" values="0 0 0 0 0 0 0 0 0 0 0 0 0 0 0 0 0 0 127 0" result="hardAlpha"/>
<feOffset/>
<feGaussianBlur stdDeviation="2"/>
<feComposite in2="hardAlpha" operator="out"/>
<feColorMatrix type="matrix" values="0 0 0 0 1 0 0 0 0 0.411765 0 0 0 0 0.705882 0 0 0 1 0"/>
<feBlend mode="normal" in2="BackgroundImageFix" result="effect1_dropShadow_57_31"/>
<feBlend mode="normal" in="SourceGraphic" in2="effect1_dropShadow_57_31" result="shape"/>
</filter>
<filter id="filter15_d_57_31" x="151.5" y="224.5" width="182.5" height="43" filterUnits="userSpaceOnUse" color-interpolation-filters="sRGB">
<feFlood flood-opacity="0" result="BackgroundImageFix"/>
<feColorMatrix in="SourceAlpha" type="matrix" values="0 0 0 0 0 0 0 0 0 0 0 0 0 0 0 0 0 0 127 0" result="hardAlpha"/>
<feOffset/>
<feGaussianBlur stdDeviation="2"/>
<feComposite in2="hardAlpha" operator="out"/>
<feColorMatrix type="matrix" values="0 0 0 0 0.6 0 0 0 0 0.2 0 0 0 0 1 0 0 0 1 0"/>
<feBlend mode="normal" in2="BackgroundImageFix" result="effect1_dropShadow_57_31"/>
<feBlend mode="normal" in="SourceGraphic" in2="effect1_dropShadow_57_31" result="shape"/>
</filter>
<filter id="filter16_d_57_31" x="64" y="264" width="104" height="104" filterUnits="userSpaceOnUse" color-interpolation-filters="sRGB">
<feFlood flood-opacity="0" result="BackgroundImageFix"/>
<feColorMatrix in="SourceAlpha" type="matrix" values="0 0 0 0 0 0 0 0 0 0 0 0 0 0 0 0 0 0 127 0" result="hardAlpha"/>
<feOffset/>
<feGaussianBlur stdDeviation="10"/>
<feComposite in2="hardAlpha" operator="out"/>
<feColorMatrix type="matrix" values="0 0 0 0 1 0 0 0 0 0.411765 0 0 0 0 0.705882 0 0 0 0.3 0"/>
<feBlend mode="normal" in2="BackgroundImageFix" result="effect1_dropShadow_57_31"/>
<feBlend mode="normal" in="SourceGraphic" in2="effect1_dropShadow_57_31" result="shape"/>
</filter>
<filter id="filter17_d_57_31" x="680" y="264" width="104" height="104" filterUnits="userSpaceOnUse" color-interpolation-filters="sRGB">
<feFlood flood-opacity="0" result="BackgroundImageFix"/>
<feColorMatrix in="SourceAlpha" type="matrix" values="0 0 0 0 0 0 0 0 0 0 0 0 0 0 0 0 0 0 127 0" result="hardAlpha"/>
<feOffset/>
<feGaussianBlur stdDeviation="10"/>
<feComposite in2="hardAlpha" operator="out"/>
<feColorMatrix type="matrix" values="0 0 0 0 1 0 0 0 0 0.411765 0 0 0 0 0.705882 0 0 0 0.3 0"/>
<feBlend mode="normal" in2="BackgroundImageFix" result="effect1_dropShadow_57_31"/>
<feBlend mode="normal" in="SourceGraphic" in2="effect1_dropShadow_57_31" result="shape"/>
</filter>
<filter id="filter18_d_57_31" x="160" y="96" width="104" height="104" filterUnits="userSpaceOnUse" color-interpolation-filters="sRGB">
<feFlood flood-opacity="0" result="BackgroundImageFix"/>
<feColorMatrix in="SourceAlpha" type="matrix" values="0 0 0 0 0 0 0 0 0 0 0 0 0 0 0 0 0 0 127 0" result="hardAlpha"/>
<feOffset/>
<feGaussianBlur stdDeviation="10"/>
<feComposite in2="hardAlpha" operator="out"/>
<feColorMatrix type="matrix" values="0 0 0 0 1 0 0 0 0 0.270588 0 0 0 0 0 0 0 0 0.3 0"/>
<feBlend mode="normal" in2="BackgroundImageFix" result="effect1_dropShadow_57_31"/>
<feBlend mode="normal" in="SourceGraphic" in2="effect1_dropShadow_57_31" result="shape"/>
</filter>
<filter id="filter19_d_57_31" x="0" y="192" width="104" height="104" filterUnits="userSpaceOnUse" color-interpolation-filters="sRGB">
<feFlood flood-opacity="0" result="BackgroundImageFix"/>
<feColorMatrix in="SourceAlpha" type="matrix" values="0 0 0 0 0 0 0 0 0 0 0 0 0 0 0 0 0 0 127 0" result="hardAlpha"/>
<feOffset/>
<feGaussianBlur stdDeviation="10"/>
<feComposite in2="hardAlpha" operator="out"/>
<feColorMatrix type="matrix" values="0 0 0 0 0 0 0 0 0 0.807843 0 0 0 0 0.819608 0 0 0 0.3 0"/>
<feBlend mode="normal" in2="BackgroundImageFix" result="effect1_dropShadow_57_31"/>
<feBlend mode="normal" in="SourceGraphic" in2="effect1_dropShadow_57_31" result="shape"/>
</filter>
<filter id="filter20_d_57_31" x="96" y="24" width="104" height="104" filterUnits="userSpaceOnUse" color-interpolation-filters="sRGB">
<feFlood flood-opacity="0" result="BackgroundImageFix"/>
<feColorMatrix in="SourceAlpha" type="matrix" values="0 0 0 0 0 0 0 0 0 0 0 0 0 0 0 0 0 0 127 0" result="hardAlpha"/>
<feOffset/>
<feGaussianBlur stdDeviation="10"/>
<feComposite in2="hardAlpha" operator="out"/>
<feColorMatrix type="matrix" values="0 0 0 0 1 0 0 0 0 0.843137 0 0 0 0 0 0 0 0 0.3 0"/>
<feBlend mode="normal" in2="BackgroundImageFix" result="effect1_dropShadow_57_31"/>
<feBlend mode="normal" in="SourceGraphic" in2="effect1_dropShadow_57_31" result="shape"/>
</filter>
<filter id="filter21_d_57_31" x="744" y="192" width="104" height="104" filterUnits="userSpaceOnUse" color-interpolation-filters="sRGB">
<feFlood flood-opacity="0" result="BackgroundImageFix"/>
<feColorMatrix in="SourceAlpha" type="matrix" values="0 0 0 0 0 0 0 0 0 0 0 0 0 0 0 0 0 0 127 0" result="hardAlpha"/>
<feOffset/>
<feGaussianBlur stdDeviation="10"/>
<feComposite in2="hardAlpha" operator="out"/>
<feColorMatrix type="matrix" values="0 0 0 0 0 0 0 0 0 0.807843 0 0 0 0 0.819608 0 0 0 0.3 0"/>
<feBlend mode="normal" in2="BackgroundImageFix" result="effect1_dropShadow_57_31"/>
<feBlend mode="normal" in="SourceGraphic" in2="effect1_dropShadow_57_31" result="shape"/>
</filter>
<filter id="filter22_d_57_31" x="712" y="96" width="104" height="104" filterUnits="userSpaceOnUse" color-interpolation-filters="sRGB">
<feFlood flood-opacity="0" result="BackgroundImageFix"/>
<feColorMatrix in="SourceAlpha" type="matrix" values="0 0 0 0 0 0 0 0 0 0 0 0 0 0 0 0 0 0 127 0" result="hardAlpha"/>
<feOffset/>
<feGaussianBlur stdDeviation="10"/>
<feComposite in2="hardAlpha" operator="out"/>
<feColorMatrix type="matrix" values="0 0 0 0 0 0 0 0 0 0.8 0 0 0 0 0.4 0 0 0 0.3 0"/>
<feBlend mode="normal" in2="BackgroundImageFix" result="effect1_dropShadow_57_31"/>
<feBlend mode="normal" in="SourceGraphic" in2="effect1_dropShadow_57_31" result="shape"/>
</filter>
<filter id="filter23_d_57_31" x="96" y="168" width="104" height="104" filterUnits="userSpaceOnUse" color-interpolation-filters="sRGB">
<feFlood flood-opacity="0" result="BackgroundImageFix"/>
<feColorMatrix in="SourceAlpha" type="matrix" values="0 0 0 0 0 0 0 0 0 0 0 0 0 0 0 0 0 0 127 0" result="hardAlpha"/>
<feOffset/>
<feGaussianBlur stdDeviation="10"/>
<feComposite in2="hardAlpha" operator="out"/>
<feColorMatrix type="matrix" values="0 0 0 0 0.6 0 0 0 0 0.2 0 0 0 0 1 0 0 0 0.3 0"/>
<feBlend mode="normal" in2="BackgroundImageFix" result="effect1_dropShadow_57_31"/>
<feBlend mode="normal" in="SourceGraphic" in2="effect1_dropShadow_57_31" result="shape"/>
</filter>
<filter id="filter24_d_57_31" x="584" y="96" width="104" height="104" filterUnits="userSpaceOnUse" color-interpolation-filters="sRGB">
<feFlood flood-opacity="0" result="BackgroundImageFix"/>
<feColorMatrix in="SourceAlpha" type="matrix" values="0 0 0 0 0 0 0 0 0 0 0 0 0 0 0 0 0 0 127 0" result="hardAlpha"/>
<feOffset/>
<feGaussianBlur stdDeviation="10"/>
<feComposite in2="hardAlpha" operator="out"/>
<feColorMatrix type="matrix" values="0 0 0 0 1 0 0 0 0 0.270588 0 0 0 0 0 0 0 0 0.3 0"/>
<feBlend mode="normal" in2="BackgroundImageFix" result="effect1_dropShadow_57_31"/>
<feBlend mode="normal" in="SourceGraphic" in2="effect1_dropShadow_57_31" result="shape"/>
</filter>
<filter id="filter25_d_57_31" x="32" y="96" width="104" height="104" filterUnits="userSpaceOnUse" color-interpolation-filters="sRGB">
<feFlood flood-opacity="0" result="BackgroundImageFix"/>
<feColorMatrix in="SourceAlpha" type="matrix" values="0 0 0 0 0 0 0 0 0 0 0 0 0 0 0 0 0 0 127 0" result="hardAlpha"/>
<feOffset/>
<feGaussianBlur stdDeviation="10"/>
<feComposite in2="hardAlpha" operator="out"/>
<feColorMatrix type="matrix" values="0 0 0 0 0 0 0 0 0 0.8 0 0 0 0 0.4 0 0 0 0.3 0"/>
<feBlend mode="normal" in2="BackgroundImageFix" result="effect1_dropShadow_57_31"/>
<feBlend mode="normal" in="SourceGraphic" in2="effect1_dropShadow_57_31" result="shape"/>
</filter>
<filter id="filter26_d_57_31" x="0" y="0" width="104" height="104" filterUnits="userSpaceOnUse" color-interpolation-filters="sRGB">
<feFlood flood-opacity="0" result="BackgroundImageFix"/>
<feColorMatrix in="SourceAlpha" type="matrix" values="0 0 0 0 0 0 0 0 0 0 0 0 0 0 0 0 0 0 127 0" result="hardAlpha"/>
<feOffset/>
<feGaussianBlur stdDeviation="10"/>
<feComposite in2="hardAlpha" operator="out"/>
<feColorMatrix type="matrix" values="0 0 0 0 0 0 0 0 0 0 0 0 0 0 1 0 0 0 0.3 0"/>
<feBlend mode="normal" in2="BackgroundImageFix" result="effect1_dropShadow_57_31"/>
<feBlend mode="normal" in="SourceGraphic" in2="effect1_dropShadow_57_31" result="shape"/>
</filter>
<filter id="filter27_d_57_31" x="648" y="24" width="104" height="104" filterUnits="userSpaceOnUse" color-interpolation-filters="sRGB">
<feFlood flood-opacity="0" result="BackgroundImageFix"/>
<feColorMatrix in="SourceAlpha" type="matrix" values="0 0 0 0 0 0 0 0 0 0 0 0 0 0 0 0 0 0 127 0" result="hardAlpha"/>
<feOffset/>
<feGaussianBlur stdDeviation="10"/>
<feComposite in2="hardAlpha" operator="out"/>
<feColorMatrix type="matrix" values="0 0 0 0 1 0 0 0 0 0.843137 0 0 0 0 0 0 0 0 0.3 0"/>
<feBlend mode="normal" in2="BackgroundImageFix" result="effect1_dropShadow_57_31"/>
<feBlend mode="normal" in="SourceGraphic" in2="effect1_dropShadow_57_31" result="shape"/>
</filter>
<filter id="filter28_d_57_31" x="744" y="0" width="104" height="104" filterUnits="userSpaceOnUse" color-interpolation-filters="sRGB">
<feFlood flood-opacity="0" result="BackgroundImageFix"/>
<feColorMatrix in="SourceAlpha" type="matrix" values="0 0 0 0 0 0 0 0 0 0 0 0 0 0 0 0 0 0 127 0" result="hardAlpha"/>
<feOffset/>
<feGaussianBlur stdDeviation="10"/>
<feComposite in2="hardAlpha" operator="out"/>
<feColorMatrix type="matrix" values="0 0 0 0 0 0 0 0 0 0 0 0 0 0 1 0 0 0 0.3 0"/>
<feBlend mode="normal" in2="BackgroundImageFix" result="effect1_dropShadow_57_31"/>
<feBlend mode="normal" in="SourceGraphic" in2="effect1_dropShadow_57_31" result="shape"/>
</filter>
<filter id="filter29_d_57_31" x="648" y="168" width="104" height="104" filterUnits="userSpaceOnUse" color-interpolation-filters="sRGB">
<feFlood flood-opacity="0" result="BackgroundImageFix"/>
<feColorMatrix in="SourceAlpha" type="matrix" values="0 0 0 0 0 0 0 0 0 0 0 0 0 0 0 0 0 0 127 0" result="hardAlpha"/>
<feOffset/>
<feGaussianBlur stdDeviation="10"/>
<feComposite in2="hardAlpha" operator="out"/>
<feColorMatrix type="matrix" values="0 0 0 0 0.6 0 0 0 0 0.2 0 0 0 0 1 0 0 0 0.3 0"/>
<feBlend mode="normal" in2="BackgroundImageFix" result="effect1_dropShadow_57_31"/>
<feBlend mode="normal" in="SourceGraphic" in2="effect1_dropShadow_57_31" result="shape"/>
</filter>
<filter id="filter30_f_57_31" x="492" y="211" width="117" height="96" filterUnits="userSpaceOnUse" color-interpolation-filters="sRGB">
<feFlood flood-opacity="0" result="BackgroundImageFix"/>
<feBlend mode="normal" in="SourceGraphic" in2="BackgroundImageFix" result="shape"/>
<feGaussianBlur stdDeviation="10" result="effect1_foregroundBlur_57_31"/>
</filter>
<filter id="filter31_f_57_31" x="239" y="212" width="117" height="96" filterUnits="userSpaceOnUse" color-interpolation-filters="sRGB">
<feFlood flood-opacity="0" result="BackgroundImageFix"/>
<feBlend mode="normal" in="SourceGraphic" in2="BackgroundImageFix" result="shape"/>
<feGaussianBlur stdDeviation="10" result="effect1_foregroundBlur_57_31"/>
</filter>
<filter id="filter32_d_57_31" x="297" y="196" width="254" height="126" filterUnits="userSpaceOnUse" color-interpolation-filters="sRGB">
<feFlood flood-opacity="0" result="BackgroundImageFix"/>
<feColorMatrix in="SourceAlpha" type="matrix" values="0 0 0 0 0 0 0 0 0 0 0 0 0 0 0 0 0 0 127 0" result="hardAlpha"/>
<feMorphology radius="2" operator="dilate" in="SourceAlpha" result="effect1_dropShadow_57_31"/>
<feOffset/>
<feGaussianBlur stdDeviation="10"/>
<feComposite in2="hardAlpha" operator="out"/>
<feColorMatrix type="matrix" values="0 0 0 0 0.00392157 0 0 0 0 0.364706 0 0 0 0 0.788235 0 0 0 1 0"/>
<feBlend mode="normal" in2="BackgroundImageFix" result="effect1_dropShadow_57_31"/>
<feBlend mode="normal" in="SourceGraphic" in2="effect1_dropShadow_57_31" result="shape"/>
</filter>
<linearGradient id="paint0_linear_57_31" x1="148" y1="326" x2="82.6672" y2="321.39" gradientUnits="userSpaceOnUse">
<stop stop-color="#2E4B6E"/>
<stop offset="1" stop-color="#1B324B"/>
</linearGradient>
<linearGradient id="paint1_linear_57_31" x1="148" y1="309" x2="98.1" y2="348.028" gradientUnits="userSpaceOnUse">
<stop stop-color="#2E547E"/>
<stop offset="1" stop-color="#122132"/>
</linearGradient>
<linearGradient id="paint2_linear_57_31" x1="764" y1="326" x2="698.667" y2="321.39" gradientUnits="userSpaceOnUse">
<stop stop-color="#2E4B6E"/>
<stop offset="1" stop-color="#1B324B"/>
</linearGradient>
<linearGradient id="paint3_linear_57_31" x1="764" y1="309" x2="714.1" y2="348.028" gradientUnits="userSpaceOnUse">
<stop stop-color="#2E547E"/>
<stop offset="1" stop-color="#122132"/>
</linearGradient>
<linearGradient id="paint4_linear_57_31" x1="244" y1="158" x2="178.667" y2="153.39" gradientUnits="userSpaceOnUse">
<stop stop-color="#2E4B6E"/>
<stop offset="1" stop-color="#1B324B"/>
</linearGradient>
<linearGradient id="paint5_linear_57_31" x1="244" y1="141" x2="194.1" y2="180.028" gradientUnits="userSpaceOnUse">
<stop stop-color="#2E547E"/>
<stop offset="1" stop-color="#122132"/>
</linearGradient>
<linearGradient id="paint6_linear_57_31" x1="84" y1="254" x2="18.6672" y2="249.39" gradientUnits="userSpaceOnUse">
<stop stop-color="#2E4B6E"/>
<stop offset="1" stop-color="#1B324B"/>
</linearGradient>
<linearGradient id="paint7_linear_57_31" x1="84" y1="237" x2="34.1" y2="276.028" gradientUnits="userSpaceOnUse">
<stop stop-color="#2E547E"/>
<stop offset="1" stop-color="#122132"/>
</linearGradient>
<linearGradient id="paint8_linear_57_31" x1="180" y1="86" x2="114.667" y2="81.3903" gradientUnits="userSpaceOnUse">
<stop stop-color="#2E4B6E"/>
<stop offset="1" stop-color="#1B324B"/>
</linearGradient>
<linearGradient id="paint9_linear_57_31" x1="180" y1="69" x2="130.1" y2="108.028" gradientUnits="userSpaceOnUse">
<stop stop-color="#2E547E"/>
<stop offset="1" stop-color="#122132"/>
</linearGradient>
<linearGradient id="paint10_linear_57_31" x1="828" y1="254" x2="762.667" y2="249.39" gradientUnits="userSpaceOnUse">
<stop stop-color="#2E4B6E"/>
<stop offset="1" stop-color="#1B324B"/>
</linearGradient>
<linearGradient id="paint11_linear_57_31" x1="828" y1="237" x2="778.1" y2="276.028" gradientUnits="userSpaceOnUse">
<stop stop-color="#2E547E"/>
<stop offset="1" stop-color="#122132"/>
</linearGradient>
<linearGradient id="paint12_linear_57_31" x1="796" y1="158" x2="730.667" y2="153.39" gradientUnits="userSpaceOnUse">
<stop stop-color="#2E4B6E"/>
<stop offset="1" stop-color="#1B324B"/>
</linearGradient>
<linearGradient id="paint13_linear_57_31" x1="796" y1="141" x2="746.1" y2="180.028" gradientUnits="userSpaceOnUse">
<stop stop-color="#2E547E"/>
<stop offset="1" stop-color="#122132"/>
</linearGradient>
<linearGradient id="paint14_linear_57_31" x1="180" y1="230" x2="114.667" y2="225.39" gradientUnits="userSpaceOnUse">
<stop stop-color="#2E4B6E"/>
<stop offset="1" stop-color="#1B324B"/>
</linearGradient>
<linearGradient id="paint15_linear_57_31" x1="180" y1="213" x2="130.1" y2="252.028" gradientUnits="userSpaceOnUse">
<stop stop-color="#2E547E"/>
<stop offset="1" stop-color="#122132"/>
</linearGradient>
<linearGradient id="paint16_linear_57_31" x1="668" y1="158" x2="602.667" y2="153.39" gradientUnits="userSpaceOnUse">
<stop stop-color="#2E4B6E"/>
<stop offset="1" stop-color="#1B324B"/>
</linearGradient>
<linearGradient id="paint17_linear_57_31" x1="668" y1="141" x2="618.1" y2="180.028" gradientUnits="userSpaceOnUse">
<stop stop-color="#2E547E"/>
<stop offset="1" stop-color="#122132"/>
</linearGradient>
<linearGradient id="paint18_linear_57_31" x1="116" y1="158" x2="50.6672" y2="153.39" gradientUnits="userSpaceOnUse">
<stop stop-color="#2E4B6E"/>
<stop offset="1" stop-color="#1B324B"/>
</linearGradient>
<linearGradient id="paint19_linear_57_31" x1="116" y1="141" x2="66.1" y2="180.028" gradientUnits="userSpaceOnUse">
<stop stop-color="#2E547E"/>
<stop offset="1" stop-color="#122132"/>
</linearGradient>
<linearGradient id="paint20_linear_57_31" x1="84" y1="62" x2="18.6672" y2="57.3903" gradientUnits="userSpaceOnUse">
<stop stop-color="#2E4B6E"/>
<stop offset="1" stop-color="#1B324B"/>
</linearGradient>
<linearGradient id="paint21_linear_57_31" x1="84" y1="45" x2="34.1" y2="84.0279" gradientUnits="userSpaceOnUse">
<stop stop-color="#2E547E"/>
<stop offset="1" stop-color="#122132"/>
</linearGradient>
<linearGradient id="paint22_linear_57_31" x1="732" y1="86" x2="666.667" y2="81.3903" gradientUnits="userSpaceOnUse">
<stop stop-color="#2E4B6E"/>
<stop offset="1" stop-color="#1B324B"/>
</linearGradient>
<linearGradient id="paint23_linear_57_31" x1="732" y1="69" x2="682.1" y2="108.028" gradientUnits="userSpaceOnUse">
<stop stop-color="#2E547E"/>
<stop offset="1" stop-color="#122132"/>
</linearGradient>
<linearGradient id="paint24_linear_57_31" x1="828" y1="62" x2="762.667" y2="57.3903" gradientUnits="userSpaceOnUse">
<stop stop-color="#2E4B6E"/>
<stop offset="1" stop-color="#1B324B"/>
</linearGradient>
<linearGradient id="paint25_linear_57_31" x1="828" y1="45" x2="778.1" y2="84.0279" gradientUnits="userSpaceOnUse">
<stop stop-color="#2E547E"/>
<stop offset="1" stop-color="#122132"/>
</linearGradient>
<linearGradient id="paint26_linear_57_31" x1="732" y1="230" x2="666.667" y2="225.39" gradientUnits="userSpaceOnUse">
<stop stop-color="#2E4B6E"/>
<stop offset="1" stop-color="#1B324B"/>
</linearGradient>
<linearGradient id="paint27_linear_57_31" x1="732" y1="213" x2="682.1" y2="252.028" gradientUnits="userSpaceOnUse">
<stop stop-color="#2E547E"/>
<stop offset="1" stop-color="#122132"/>
</linearGradient>
<linearGradient id="paint28_linear_57_31" x1="589.389" y1="261.42" x2="527.556" y2="261.42" gradientUnits="userSpaceOnUse">
<stop stop-color="#0156B9" stop-opacity="0"/>
<stop offset="1" stop-color="#0155B7"/>
</linearGradient>
<linearGradient id="paint29_linear_57_31" x1="258.611" y1="262.42" x2="320.444" y2="262.42" gradientUnits="userSpaceOnUse">
<stop stop-color="#0156B9" stop-opacity="0"/>
<stop offset="1" stop-color="#0155B7"/>
</linearGradient>
<radialGradient id="paint30_radial_57_31" cx="0" cy="0" r="1" gradientTransform="matrix(-7.90796 126.075 -245.433 -20.9495 432.347 209.8)" gradientUnits="userSpaceOnUse">
<stop stop-color="#0076FF"/>
<stop offset="0.802369" stop-color="#00408B"/>
</radialGradient>
<linearGradient id="paint31_linear_57_31" x1="458.707" y1="208.263" x2="413.352" y2="341.848" gradientUnits="userSpaceOnUse">
<stop stop-color="#3A95FF"/>
<stop offset="1" stop-color="#0E3868"/>
</linearGradient>
</defs>
</svg>
